<svg width="45" height="46" viewBox="0 0 45 46" fill="none" xmlns="http://www.w3.org/2000/svg">
<circle cx="22.5" cy="22.8462" r="22.5" fill="#42DA3F"/>
<path d="M15.7118 31.7597C15.0236 31.7597 14.3806 31.5227 13.918 31.0827C13.3313 30.5299 13.0493 29.695 13.1508 28.7924L13.5682 25.137C13.6472 24.4488 14.0647 23.535 14.5498 23.0386L23.8124 13.2345C26.1252 10.7863 28.5395 10.7186 30.9877 13.0315C33.4359 15.3443 33.5036 17.7586 31.1908 20.2068L21.9283 30.0109C21.4544 30.5186 20.5744 30.9924 19.8862 31.1054L16.2534 31.7258C16.0616 31.737 15.8923 31.7597 15.7118 31.7597ZM27.4339 13.0202C26.5652 13.0202 25.8093 13.5617 25.0421 14.374L15.7795 24.1895C15.5539 24.4264 15.2944 24.9905 15.2493 25.3177L14.8318 28.9729C14.7867 29.3452 14.877 29.6499 15.08 29.8417C15.2831 30.0334 15.5877 30.1011 15.96 30.0447L19.5929 29.4243C19.92 29.3679 20.4616 29.0745 20.6872 28.8376L29.9498 19.0335C31.3488 17.5443 31.8565 16.1679 29.8144 14.2499C28.9118 13.3812 28.1334 13.0202 27.4339 13.0202Z" fill="#0F172A" stroke="black"/>
<path d="M29.0252 22.0907C29.0027 22.0907 28.9688 22.0907 28.9463 22.0907C25.4263 21.741 22.5945 19.0672 22.0529 15.5697C21.9852 15.1072 22.3011 14.6785 22.7637 14.5995C23.2263 14.5318 23.655 14.8477 23.7339 15.3103C24.1627 18.0405 26.3739 20.139 29.1268 20.4097C29.5893 20.4549 29.9278 20.8723 29.8827 21.3348C29.8263 21.7635 29.4539 22.0907 29.0252 22.0907Z" fill="#0F172A" stroke="black"/>
<path d="M33.1538 35.4038H12.8462C12.3836 35.4038 12 35.0202 12 34.5576C12 34.095 12.3836 33.7115 12.8462 33.7115H33.1538C33.6164 33.7115 34 34.095 34 34.5576C34 35.0202 33.6164 35.4038 33.1538 35.4038Z" fill="#0F172A" stroke="black"/>
</svg>
