<svg width="362" height="321" viewBox="0 0 362 321" fill="none" xmlns="http://www.w3.org/2000/svg">
<path d="M314.876 279.491C308.432 283.825 297.892 258.704 297.169 251.69C296.445 244.677 301.788 248.719 301.788 248.719C301.788 248.719 296.73 226.03 299.909 219.117C303.089 212.203 305.914 220.087 305.914 220.087C305.914 220.087 308.317 196.682 318.648 194.573C328.98 192.463 320.504 218.37 320.504 218.37C320.504 218.37 324.723 211.887 328.88 213.62C333.037 215.352 320.827 244.738 320.827 244.738C320.827 244.738 325.531 239.542 329.458 241.166C333.384 242.79 324.838 272.801 314.876 279.491Z" fill="#4DBA6C"/>
<path d="M313.598 277.82C313.507 277.82 313.419 277.787 313.35 277.728C313.281 277.668 313.235 277.587 313.221 277.497C313.144 277.05 305.745 232.528 317.44 199.292C317.453 199.24 317.477 199.192 317.51 199.15C317.543 199.108 317.584 199.073 317.631 199.048C317.678 199.023 317.73 199.008 317.783 199.004C317.836 199 317.89 199.007 317.94 199.024C317.99 199.042 318.037 199.07 318.075 199.107C318.114 199.143 318.145 199.187 318.166 199.236C318.187 199.285 318.198 199.338 318.197 199.391C318.197 199.445 318.185 199.498 318.163 199.546C306.538 232.59 313.898 276.919 313.975 277.366C313.984 277.416 313.983 277.467 313.972 277.517C313.961 277.567 313.94 277.613 313.91 277.655C313.881 277.697 313.844 277.732 313.801 277.759C313.758 277.786 313.71 277.804 313.66 277.812H313.598V277.82Z" fill="#1F343F"/>
<path d="M311.211 242.837C311.131 242.835 311.052 242.808 310.988 242.76C303.674 237.424 302.681 224.213 302.635 223.651C302.631 223.601 302.638 223.55 302.654 223.502C302.67 223.454 302.695 223.409 302.728 223.371C302.762 223.333 302.802 223.302 302.847 223.279C302.893 223.256 302.942 223.243 302.993 223.239C303.043 223.236 303.094 223.242 303.142 223.258C303.19 223.274 303.235 223.3 303.273 223.333C303.311 223.366 303.342 223.407 303.365 223.452C303.388 223.497 303.401 223.547 303.405 223.597C303.405 223.728 304.398 236.755 311.234 241.982C312.482 241.212 319.18 236.27 323.653 221.419C323.667 221.368 323.692 221.321 323.725 221.28C323.757 221.239 323.798 221.204 323.844 221.179C323.89 221.154 323.941 221.138 323.993 221.132C324.046 221.126 324.099 221.131 324.149 221.145C324.2 221.16 324.247 221.184 324.288 221.217C324.329 221.25 324.363 221.291 324.389 221.337C324.414 221.383 324.43 221.434 324.436 221.486C324.442 221.538 324.437 221.591 324.422 221.642C319.387 238.341 311.75 242.613 311.427 242.79C311.361 242.827 311.286 242.843 311.211 242.837Z" fill="#1F343F"/>
<path d="M312.12 265.618H312.004C307.562 264.247 304.182 255.678 304.044 255.316C304.015 255.224 304.023 255.123 304.066 255.036C304.108 254.949 304.182 254.881 304.273 254.846C304.364 254.81 304.464 254.811 304.554 254.847C304.645 254.883 304.718 254.952 304.76 255.039C304.76 255.124 308.047 263.385 312.058 264.825C312.897 264.209 317.263 260.659 320.619 251.113C320.659 251.025 320.73 250.955 320.819 250.918C320.907 250.88 321.007 250.876 321.098 250.908C321.188 250.94 321.264 251.005 321.309 251.09C321.355 251.175 321.367 251.274 321.343 251.367C317.493 262.207 312.528 265.44 312.32 265.579C312.258 265.609 312.189 265.623 312.12 265.618Z" fill="#1F343F"/>
<path d="M312.689 221.857C312.637 221.855 312.585 221.843 312.538 221.82C312.49 221.798 312.447 221.766 312.412 221.726C310.295 219.278 309.818 211.549 309.795 211.225C309.792 211.175 309.799 211.124 309.815 211.076C309.832 211.028 309.857 210.984 309.891 210.946C309.925 210.908 309.965 210.878 310.011 210.855C310.056 210.833 310.106 210.82 310.156 210.817C310.207 210.814 310.258 210.821 310.306 210.838C310.353 210.854 310.398 210.88 310.435 210.914C310.473 210.947 310.504 210.988 310.526 211.034C310.549 211.079 310.561 211.129 310.565 211.179C310.565 211.256 311.003 218.285 312.736 220.887C313.775 219.779 317.193 215.898 318.41 211.325C318.423 211.275 318.446 211.227 318.477 211.186C318.509 211.144 318.548 211.109 318.593 211.082C318.638 211.056 318.688 211.039 318.74 211.031C318.791 211.024 318.844 211.027 318.895 211.04C318.945 211.054 318.993 211.077 319.034 211.108C319.076 211.14 319.111 211.179 319.138 211.224C319.164 211.269 319.181 211.319 319.189 211.371C319.196 211.422 319.193 211.475 319.18 211.526C317.694 217.13 313.19 221.534 313.02 221.757C312.977 221.799 312.924 221.829 312.867 221.847C312.809 221.864 312.749 221.868 312.689 221.857Z" fill="#1F343F"/>
<path d="M322.598 280.369C315.207 281.693 315.669 255.37 317.74 248.873C319.811 242.375 322.96 248.033 322.96 248.033C322.96 248.033 327.317 225.992 332.814 221.087C338.311 216.183 337.749 224.282 337.749 224.282C337.749 224.282 348.982 204.52 358.944 206.675C368.906 208.831 351.322 228.448 351.322 228.448C351.322 228.448 357.574 224.352 360.561 227.508C363.548 230.665 341.314 251.906 341.314 251.906C341.314 251.906 347.534 249.157 350.36 252.114C353.185 255.07 334 278.321 322.598 280.369Z" fill="#1F343F"/>
<path d="M322.267 278.436H322.174C322.125 278.424 322.079 278.401 322.039 278.371C321.998 278.341 321.964 278.302 321.938 278.259C321.913 278.215 321.896 278.167 321.889 278.117C321.882 278.067 321.885 278.016 321.897 277.966C322.005 277.543 332.791 235.276 356.072 210.425C356.106 210.384 356.147 210.35 356.194 210.326C356.241 210.301 356.292 210.287 356.345 210.283C356.397 210.279 356.45 210.287 356.5 210.304C356.55 210.322 356.595 210.349 356.634 210.385C356.672 210.421 356.703 210.465 356.724 210.513C356.745 210.562 356.756 210.614 356.756 210.667C356.756 210.719 356.746 210.772 356.725 210.82C356.704 210.868 356.673 210.912 356.634 210.948C333.484 235.654 322.76 277.728 322.644 278.151C322.622 278.234 322.573 278.307 322.504 278.358C322.436 278.41 322.352 278.437 322.267 278.436Z" fill="#4DBA6C"/>
<path d="M333.769 246.555C333.702 246.555 333.636 246.537 333.578 246.503C333.52 246.469 333.471 246.421 333.438 246.363C329.042 238.795 333.307 226.715 333.484 226.2C333.5 226.151 333.526 226.105 333.56 226.067C333.594 226.028 333.635 225.996 333.681 225.974C333.728 225.951 333.778 225.938 333.829 225.936C333.881 225.933 333.932 225.941 333.981 225.958C334.029 225.976 334.073 226.003 334.111 226.038C334.149 226.073 334.179 226.115 334.2 226.162C334.222 226.209 334.233 226.259 334.234 226.311C334.236 226.362 334.227 226.413 334.208 226.461C334.162 226.584 329.966 238.471 333.977 245.755C335.416 245.524 343.215 243.768 352.954 232.405C353.021 232.327 353.115 232.279 353.217 232.271C353.319 232.263 353.42 232.296 353.497 232.362C353.575 232.429 353.623 232.523 353.631 232.625C353.639 232.727 353.606 232.828 353.539 232.905C342.546 245.724 334.154 246.555 333.8 246.555H333.769Z" fill="#4DBA6C"/>
<path d="M325.701 267.065C325.607 267.066 325.517 267.033 325.446 266.973C322.044 264.024 322.367 255.132 322.405 254.754C322.406 254.704 322.418 254.653 322.438 254.607C322.459 254.561 322.489 254.519 322.527 254.484C322.564 254.45 322.608 254.423 322.656 254.406C322.704 254.389 322.755 254.382 322.806 254.385C322.856 254.387 322.906 254.399 322.952 254.42C322.998 254.441 323.039 254.471 323.074 254.508C323.108 254.546 323.135 254.589 323.152 254.637C323.169 254.684 323.177 254.735 323.175 254.785C323.175 254.87 322.837 263.423 325.808 266.264C326.809 266.041 332.037 264.594 338.704 257.472C338.737 257.431 338.778 257.397 338.825 257.373C338.872 257.349 338.923 257.334 338.976 257.331C339.029 257.327 339.082 257.334 339.131 257.352C339.181 257.369 339.227 257.397 339.265 257.433C339.304 257.469 339.335 257.512 339.356 257.561C339.377 257.609 339.388 257.661 339.388 257.714C339.388 257.767 339.377 257.819 339.356 257.868C339.335 257.916 339.304 257.96 339.266 257.996C331.667 266.103 325.985 267.019 325.747 267.057H325.693L325.701 267.065Z" fill="#4DBA6C"/>
<path d="M343.238 228.571C343.156 228.571 343.076 228.545 343.009 228.497C342.943 228.448 342.894 228.38 342.869 228.301C341.953 225.306 344.532 218.293 344.64 217.985C344.657 217.937 344.684 217.894 344.719 217.857C344.753 217.819 344.795 217.789 344.841 217.768C344.887 217.747 344.937 217.736 344.987 217.734C345.038 217.732 345.089 217.74 345.136 217.758C345.184 217.775 345.227 217.802 345.264 217.837C345.302 217.871 345.332 217.913 345.353 217.959C345.374 218.005 345.385 218.055 345.387 218.106C345.389 218.156 345.381 218.207 345.363 218.254C345.363 218.324 343 224.69 343.508 227.662C344.878 227.085 349.39 224.975 352.223 221.418C352.252 221.374 352.291 221.336 352.336 221.308C352.381 221.279 352.431 221.26 352.484 221.251C352.536 221.243 352.59 221.246 352.642 221.259C352.693 221.273 352.741 221.297 352.783 221.33C352.825 221.363 352.859 221.405 352.884 221.452C352.909 221.499 352.924 221.551 352.928 221.604C352.931 221.657 352.924 221.711 352.906 221.761C352.888 221.811 352.86 221.857 352.823 221.896C349.328 226.276 343.585 228.455 343.369 228.548C343.327 228.563 343.283 228.571 343.238 228.571Z" fill="#4DBA6C"/>
<path d="M311.381 283.871C310.771 284.211 310.052 284.297 309.379 284.11C298.162 281.215 280.739 256.61 283.773 253.869C286.806 251.128 292.511 254.192 292.796 254.331C292.365 253.854 272.24 231.465 275.45 228.578C278.661 225.691 284.312 229.987 284.604 230.203C284.327 229.841 274.449 216.899 275.365 210.887C275.453 210.417 275.677 209.983 276.008 209.638C276.339 209.293 276.763 209.052 277.229 208.945C277.695 208.838 278.182 208.869 278.631 209.035C279.079 209.201 279.47 209.494 279.754 209.878C300.564 236.885 309.225 273.378 311.381 283.871Z" fill="#1F343F"/>
<path d="M300.348 249.465H300.256C298.169 248.926 290.709 246.263 282.071 234.483C282.011 234.401 281.986 234.298 282.002 234.196C282.018 234.095 282.073 234.005 282.156 233.945C282.239 233.884 282.342 233.859 282.443 233.875C282.544 233.891 282.635 233.947 282.695 234.029C291.163 245.577 298.431 248.203 300.448 248.719C300.532 248.748 300.602 248.805 300.648 248.881C300.694 248.956 300.713 249.045 300.701 249.133C300.69 249.22 300.648 249.301 300.584 249.362C300.52 249.422 300.436 249.459 300.348 249.465Z" fill="#4DBA6C"/>
<path d="M307.3 270.622H307.216C306.985 270.568 301.388 269.228 294.412 260.575C294.381 260.535 294.357 260.49 294.342 260.441C294.328 260.393 294.323 260.342 294.329 260.291C294.334 260.241 294.349 260.192 294.374 260.148C294.398 260.103 294.431 260.064 294.47 260.032C294.51 260 294.555 259.976 294.603 259.962C294.652 259.948 294.703 259.943 294.753 259.948C294.804 259.954 294.853 259.969 294.897 259.993C294.942 260.018 294.981 260.05 295.013 260.09C301.819 268.558 307.331 269.86 307.385 269.867C307.472 269.892 307.548 269.948 307.599 270.023C307.65 270.099 307.672 270.19 307.662 270.28C307.652 270.371 307.61 270.455 307.543 270.517C307.477 270.58 307.391 270.617 307.3 270.622Z" fill="#4DBA6C"/>
<path d="M291.679 230.388C291.615 230.388 291.551 230.372 291.495 230.341C289.539 229.264 285.913 226.946 283.588 223.543C283.531 223.459 283.509 223.355 283.529 223.254C283.548 223.154 283.607 223.066 283.692 223.008C283.776 222.951 283.88 222.93 283.981 222.949C284.081 222.969 284.17 223.028 284.227 223.112C286.467 226.384 289.978 228.632 291.872 229.672C291.944 229.715 292 229.78 292.032 229.858C292.064 229.936 292.069 230.022 292.047 230.103C292.025 230.184 291.978 230.256 291.911 230.307C291.845 230.358 291.763 230.387 291.679 230.388Z" fill="#4DBA6C"/>
<path d="M327.217 319.694H300.425C298.286 319.696 296.23 318.866 294.69 317.381C293.151 315.896 292.248 313.871 292.172 311.734L291.017 279.329C291.004 278.948 291.067 278.569 291.203 278.213C291.34 277.857 291.546 277.533 291.81 277.258C292.075 276.984 292.392 276.765 292.742 276.616C293.092 276.466 293.469 276.389 293.85 276.388H333.777C334.158 276.389 334.534 276.466 334.885 276.616C335.235 276.765 335.552 276.984 335.817 277.258C336.081 277.533 336.287 277.857 336.424 278.213C336.56 278.569 336.623 278.948 336.61 279.329L335.455 311.734C335.379 313.869 334.478 315.891 332.942 317.376C331.406 318.861 329.354 319.692 327.217 319.694Z" fill="#A5433E"/>
<path d="M333.784 276.388H325.962C325.362 279.006 325.539 282.778 330.659 284.572C332.502 285.246 334.501 285.377 336.417 284.949L336.617 279.329C336.631 278.948 336.568 278.569 336.431 278.213C336.295 277.857 336.089 277.533 335.824 277.258C335.56 276.984 335.243 276.765 334.893 276.616C334.542 276.466 334.165 276.389 333.784 276.388Z" fill="white"/>
<path d="M316.423 286.882C315.376 283.194 317.347 278.975 318.918 276.396H310.326C305.383 284.68 308.37 299.739 321.813 296.513C328.472 294.912 333.007 295.743 335.994 297.183L336.225 290.67C328.472 285.819 317.909 292.171 316.423 286.882Z" fill="white"/>
<path d="M334.231 315.791C327.687 301.417 315.961 315.514 308.247 300.447C302.974 290.138 295.929 290.123 291.464 291.463L291.718 298.545C305.499 293.156 304.898 315.683 316.624 313.943C322.89 312.996 326.447 316.33 328.395 319.625C329.589 319.452 330.73 319.019 331.739 318.356C332.747 317.694 333.598 316.818 334.231 315.791Z" fill="white"/>
<path d="M297.946 306.221C294.389 307.107 297.754 315.075 300.833 312.958C303.913 310.841 300.641 305.551 297.946 306.221Z" fill="white"/>
<path d="M327.625 300.77C325.185 302.226 329.457 307.384 331.274 305.12C333.091 302.857 329.457 299.677 327.625 300.77Z" fill="white"/>
<path d="M39.4347 286.035C44.8239 289.661 53.6544 268.635 54.278 262.761C54.9016 256.887 50.4286 260.275 50.4286 260.275C50.4286 260.275 54.663 241.274 51.9684 235.492C49.2738 229.71 46.941 236.3 46.941 236.3C46.941 236.3 44.9317 216.707 36.2782 214.944C27.6247 213.181 34.7384 234.868 34.7384 234.868C34.7384 234.868 31.2046 229.479 27.7248 230.888C24.2449 232.297 34.4689 256.941 34.4689 256.941C34.4689 256.941 30.4886 252.591 27.2243 253.954C23.96 255.317 31.1045 280.43 39.4347 286.035Z" fill="#4DBA6C"/>
<path d="M40.5048 284.695H40.4432C40.393 284.687 40.3451 284.669 40.302 284.642C40.2589 284.615 40.2217 284.579 40.1923 284.538C40.163 284.496 40.1421 284.449 40.131 284.4C40.1199 284.35 40.1187 284.299 40.1275 284.249C40.1891 283.879 46.3559 246.778 36.6246 219.124C36.6007 219.031 36.6126 218.932 36.658 218.847C36.7034 218.762 36.7791 218.697 36.8699 218.665C36.9608 218.634 37.0604 218.637 37.1489 218.675C37.2375 218.713 37.3086 218.782 37.3483 218.87C47.1489 246.717 40.9513 284.002 40.882 284.38C40.8659 284.468 40.8193 284.548 40.7504 284.606C40.6815 284.663 40.5946 284.695 40.5048 284.695Z" fill="#1F343F"/>
<path d="M42.5065 255.401C42.442 255.401 42.3785 255.386 42.3218 255.355C42.0523 255.209 35.6315 251.621 31.4125 237.648C31.3829 237.546 31.3951 237.436 31.4463 237.343C31.4976 237.25 31.5837 237.181 31.6858 237.151C31.7879 237.121 31.8976 237.134 31.9907 237.185C32.0838 237.236 32.1528 237.322 32.1824 237.424C35.8932 249.743 41.421 253.854 42.5219 254.585C48.196 250.204 49.012 239.372 49.0197 239.264C49.0233 239.214 49.0367 239.164 49.0593 239.119C49.082 239.074 49.1133 239.033 49.1515 239C49.1898 238.967 49.2342 238.941 49.2823 238.925C49.3303 238.909 49.3811 238.903 49.4316 238.906C49.4822 238.91 49.5315 238.923 49.5769 238.946C49.6222 238.969 49.6627 239 49.6959 239.038C49.7292 239.076 49.7546 239.121 49.7706 239.169C49.7867 239.217 49.7932 239.268 49.7896 239.318C49.7896 239.788 48.9197 250.867 42.776 255.363C42.6938 255.408 42.598 255.422 42.5065 255.401Z" fill="#1F343F"/>
<path d="M41.7443 274.479C41.6662 274.484 41.5884 274.465 41.5211 274.425C41.344 274.317 37.1481 271.592 33.9377 262.5C33.9157 262.451 33.9041 262.398 33.9036 262.345C33.9031 262.292 33.9136 262.239 33.9346 262.19C33.9556 262.141 33.9866 262.096 34.0256 262.06C34.0645 262.023 34.1106 261.995 34.161 261.978C34.2113 261.96 34.2648 261.953 34.318 261.957C34.3712 261.961 34.423 261.976 34.4701 262.002C34.5171 262.027 34.5584 262.061 34.5914 262.103C34.6243 262.145 34.6481 262.194 34.6614 262.245C37.4407 270.129 41.0283 273.116 41.7828 273.678C45.101 272.446 47.7956 265.602 47.8264 265.533C47.8681 265.445 47.9414 265.376 48.0317 265.34C48.1219 265.304 48.2225 265.304 48.3131 265.339C48.4037 265.374 48.4776 265.442 48.5202 265.53C48.5627 265.617 48.5707 265.717 48.5424 265.81C48.4269 266.118 45.586 273.316 41.8367 274.471L41.7443 274.479Z" fill="#1F343F"/>
<path d="M41.267 237.84C41.1666 237.841 41.0699 237.802 40.9975 237.732C40.8359 237.578 37.048 233.883 35.8008 229.14C35.7743 229.038 35.7894 228.93 35.8428 228.839C35.8962 228.748 35.9836 228.682 36.0857 228.655C36.1878 228.629 36.2962 228.644 36.3872 228.697C36.4781 228.751 36.5442 228.838 36.5707 228.94C37.5639 232.682 40.32 235.869 41.2516 236.862C42.6605 234.653 43.0146 228.894 43.0146 228.832C43.0165 228.782 43.0288 228.732 43.0505 228.685C43.0723 228.639 43.1032 228.598 43.1413 228.564C43.1794 228.531 43.224 228.505 43.2724 228.489C43.3208 228.473 43.3719 228.466 43.4227 228.471C43.4733 228.474 43.5228 228.486 43.5683 228.509C43.6139 228.531 43.6547 228.562 43.6883 228.6C43.7219 228.637 43.7477 228.682 43.7642 228.73C43.7808 228.777 43.7876 228.828 43.7845 228.879C43.7845 229.156 43.3688 235.638 41.5827 237.709C41.5476 237.749 41.505 237.78 41.4574 237.803C41.4098 237.825 41.3581 237.838 41.3055 237.84H41.267Z" fill="#1F343F"/>
<path d="M32.9753 286.766C39.1344 287.875 38.7803 265.841 37.048 260.398C35.3158 254.955 32.6828 259.689 32.6828 259.689C32.6828 259.689 29.0335 241.212 24.4296 237.147C19.8257 233.082 20.3031 239.819 20.3031 239.819C20.3031 239.819 10.8951 223.274 2.55723 225.075C-5.7806 226.877 8.93957 243.306 8.93957 243.306C8.93957 243.306 3.70436 239.88 1.18684 242.536C-1.33068 245.193 17.2928 262.961 17.2928 262.961C17.2928 262.961 12.0807 260.652 9.71715 263.139C7.35361 265.625 23.4211 285.049 32.9753 286.766Z" fill="#1F343F"/>
<path d="M33.2525 285.211C33.1672 285.21 33.0846 285.181 33.0177 285.128C32.9508 285.075 32.9034 285.001 32.883 284.918C32.7906 284.564 23.806 249.35 4.44345 228.717C4.40492 228.681 4.37421 228.637 4.35324 228.589C4.33226 228.54 4.32147 228.488 4.32153 228.435C4.32159 228.383 4.3325 228.331 4.35359 228.282C4.37467 228.234 4.40548 228.19 4.4441 228.154C4.48271 228.118 4.52831 228.091 4.57806 228.073C4.62782 228.055 4.68066 228.048 4.7333 228.052C4.78595 228.056 4.83728 228.07 4.8841 228.094C4.93092 228.119 4.97223 228.152 5.00547 228.193C24.5143 248.98 33.5451 284.395 33.6297 284.772C33.6425 284.821 33.6454 284.872 33.6383 284.922C33.6313 284.973 33.6144 285.021 33.5887 285.065C33.5629 285.108 33.5288 285.146 33.4883 285.177C33.4478 285.207 33.4017 285.229 33.3526 285.242H33.2525V285.211Z" fill="#4DBA6C"/>
<path d="M23.6212 258.519C23.321 258.519 16.2458 257.819 7.05334 247.071C6.98698 246.993 6.95416 246.893 6.9621 246.791C6.97005 246.689 7.0181 246.595 7.09569 246.528C7.17328 246.462 7.27405 246.429 7.37584 246.437C7.47763 246.445 7.57209 246.493 7.63845 246.571C15.6683 255.971 22.1431 257.503 23.4442 257.719C26.7547 251.644 23.2594 241.759 23.2209 241.659C23.202 241.611 23.193 241.56 23.1942 241.508C23.1955 241.457 23.207 241.406 23.2282 241.359C23.2494 241.312 23.2798 241.27 23.3175 241.235C23.3553 241.2 23.3997 241.173 23.4481 241.156C23.4965 241.138 23.5479 241.131 23.5993 241.133C23.6507 241.136 23.701 241.149 23.7473 241.171C23.7936 241.194 23.8349 241.226 23.8688 241.264C23.9027 241.303 23.9285 241.348 23.9446 241.397C24.0986 241.828 27.6785 251.967 23.9446 258.334C23.9107 258.39 23.8633 258.436 23.8067 258.469C23.7502 258.501 23.6864 258.518 23.6212 258.519Z" fill="#4DBA6C"/>
<path d="M30.3732 275.695H30.3116C30.1114 275.695 25.3381 274.925 18.9558 268.089C18.9172 268.053 18.8865 268.009 18.8656 267.961C18.8446 267.912 18.8338 267.86 18.8339 267.807C18.8339 267.755 18.8448 267.702 18.8659 267.654C18.887 267.606 18.9178 267.562 18.9564 267.526C18.995 267.49 19.0406 267.462 19.0904 267.445C19.1401 267.427 19.193 267.42 19.2456 267.424C19.2983 267.427 19.3496 267.442 19.3964 267.466C19.4432 267.491 19.4846 267.524 19.5178 267.565C25.0225 273.44 29.3492 274.694 30.25 274.902C32.6982 272.523 32.4133 265.433 32.4133 265.363C32.4113 265.313 32.4192 265.262 32.4367 265.215C32.4541 265.167 32.4808 265.124 32.5151 265.087C32.5494 265.049 32.5908 265.019 32.6367 264.998C32.6827 264.977 32.7323 264.965 32.7829 264.963C32.834 264.959 32.8853 264.965 32.9338 264.982C32.9822 264.999 33.0267 265.025 33.0643 265.06C33.102 265.095 33.132 265.137 33.1525 265.184C33.1729 265.231 33.1834 265.281 33.1832 265.333C33.1832 265.648 33.4912 273.124 30.6195 275.618C30.5487 275.672 30.4617 275.699 30.3732 275.695Z" fill="#4DBA6C"/>
<path d="M15.6838 243.476C15.6379 243.484 15.591 243.484 15.5452 243.476C15.345 243.399 10.5409 241.574 7.59998 237.886C7.56339 237.848 7.53525 237.802 7.51734 237.751C7.49943 237.701 7.49214 237.648 7.49594 237.595C7.49974 237.541 7.51454 237.49 7.5394 237.443C7.56427 237.395 7.59865 237.354 7.64038 237.321C7.68211 237.288 7.73027 237.263 7.78181 237.25C7.83336 237.236 7.88716 237.234 7.93982 237.242C7.99247 237.25 8.04283 237.269 8.0877 237.298C8.13257 237.327 8.17098 237.365 8.20049 237.409C10.5101 240.319 14.1825 242.028 15.3989 242.583C15.7761 240.08 13.8591 234.884 13.8591 234.814C13.8414 234.767 13.8333 234.716 13.8351 234.666C13.837 234.615 13.8488 234.565 13.8698 234.519C13.8909 234.473 13.9209 234.432 13.958 234.397C13.9952 234.362 14.0387 234.336 14.0862 234.318C14.1338 234.3 14.1843 234.292 14.235 234.294C14.2856 234.296 14.3355 234.308 14.3816 234.329C14.4277 234.35 14.4692 234.38 14.5037 234.417C14.5382 234.454 14.5651 234.497 14.5828 234.545C14.6752 234.791 16.8463 240.704 16.0687 243.222C16.0406 243.3 15.9879 243.367 15.9185 243.413C15.8491 243.458 15.7667 243.481 15.6838 243.476Z" fill="#4DBA6C"/>
<path d="M47.6801 319.694H25.2303C23.4371 319.695 21.7132 319.001 20.421 317.758C19.1289 316.515 18.3691 314.819 18.3013 313.027L17.3621 285.896C17.3507 285.577 17.4036 285.26 17.5176 284.962C17.6315 284.664 17.8043 284.392 18.0255 284.162C18.2467 283.932 18.5119 283.749 18.8053 283.624C19.0987 283.498 19.4143 283.433 19.7333 283.433H53.1617C53.4807 283.433 53.7963 283.498 54.0897 283.624C54.383 283.749 54.6482 283.932 54.8695 284.162C55.0907 284.392 55.2634 284.664 55.3774 284.962C55.4914 285.26 55.5443 285.577 55.5329 285.896L54.609 313.027C54.5413 314.819 53.7815 316.515 52.4893 317.758C51.1972 319.001 49.4733 319.695 47.6801 319.694Z" fill="#A5433E"/>
<path d="M53.1617 283.433H46.61C46.1019 285.627 46.2558 288.822 50.5441 290.285C52.0873 290.848 53.7599 290.958 55.3636 290.6L55.5329 285.896C55.5443 285.577 55.4914 285.26 55.3774 284.962C55.2635 284.664 55.0907 284.392 54.8695 284.162C54.6483 283.932 54.3831 283.749 54.0897 283.624C53.7963 283.498 53.4807 283.433 53.1617 283.433Z" fill="white"/>
<path d="M38.6263 292.217C37.7486 289.137 39.3962 285.596 40.7127 283.433H33.5142C29.3723 290.362 31.8821 302.98 43.1301 300.27C48.704 298.93 52.5073 299.639 55.0017 300.832L55.1942 295.381C48.7117 291.347 39.8812 296.652 38.6263 292.217Z" fill="white"/>
<path d="M53.5313 316.422C48.0497 304.381 38.2337 316.191 31.7743 303.573C27.3552 294.942 21.4348 294.927 17.7163 296.051L17.9241 301.979C29.4724 297.468 28.9643 316.33 38.7803 314.852C44.0232 314.082 47.0026 316.853 48.6348 319.61C49.6338 319.467 50.5896 319.108 51.4354 318.557C52.2812 318.007 52.9964 317.278 53.5313 316.422Z" fill="white"/>
<path d="M23.1516 308.415C20.1722 309.185 22.9899 315.829 25.569 314.059C28.1481 312.288 25.4074 307.853 23.1516 308.415Z" fill="white"/>
<path d="M48.0035 303.85C45.9633 305.066 49.5432 309.385 51.083 307.492C52.6228 305.598 49.5509 302.934 48.0035 303.85Z" fill="white"/>
<path d="M166.242 241.682H55.3789C55.3789 241.682 37.0557 188.722 38.2105 158.404C38.9111 139.996 45.4782 127.169 57.5269 120.679C65.3104 116.445 75.3959 114.905 87.6678 116.191C119.41 119.524 132.652 153.746 134.715 171.068H163.163C163.745 171.068 164.327 171.115 164.903 171.207H164.98C165.562 171.3 166.134 171.447 166.689 171.646C167.033 171.767 167.37 171.908 167.697 172.069C170.931 173.686 173.949 177.689 174.287 187.336C174.772 201.979 172.186 220.125 166.242 241.682Z" fill="#4DBA6C"/>
<path d="M151.514 242.067H151.422C151.323 242.043 151.238 241.981 151.184 241.895C151.131 241.808 151.114 241.704 151.137 241.605C153.593 231.535 156.049 208.954 156.603 198.43C156.703 196.474 156.726 194.365 156.75 192.124C156.834 183.417 156.927 173.547 162.37 171.338C162.417 171.312 162.469 171.297 162.523 171.294C162.576 171.29 162.63 171.297 162.681 171.315C162.731 171.334 162.777 171.362 162.816 171.399C162.855 171.436 162.885 171.481 162.906 171.531C162.926 171.58 162.936 171.634 162.935 171.687C162.934 171.741 162.921 171.794 162.898 171.842C162.875 171.891 162.842 171.934 162.802 171.969C162.761 172.004 162.714 172.03 162.662 172.046C157.697 174.094 157.596 183.694 157.519 192.163C157.519 194.411 157.473 196.528 157.373 198.499C156.827 209.046 154.355 231.704 151.892 241.813C151.864 241.89 151.812 241.956 151.744 242.001C151.677 242.047 151.596 242.07 151.514 242.067Z" fill="#1F343F"/>
<path d="M105.86 246.555L119.364 317.015C119.438 317.403 119.425 317.803 119.326 318.186C119.227 318.569 119.045 318.925 118.793 319.23C118.541 319.534 118.225 319.779 117.867 319.947C117.509 320.115 117.119 320.202 116.723 320.202C116.142 320.202 115.577 320.014 115.112 319.666C114.647 319.317 114.307 318.828 114.144 318.27L93.1571 246.555H105.86Z" fill="#1F343F"/>
<path d="M64.094 246.555L50.5903 317.015C50.5166 317.403 50.5296 317.803 50.6283 318.186C50.727 318.569 50.9089 318.925 51.1611 319.23C51.4133 319.534 51.7296 319.779 52.0874 319.947C52.4452 320.115 52.8356 320.202 53.231 320.202C53.812 320.202 54.3774 320.014 54.8424 319.666C55.3074 319.317 55.6469 318.828 55.8101 318.27L76.7971 246.555H64.094Z" fill="#1F343F"/>
<path d="M158.79 246.555L172.293 317.015C172.367 317.403 172.354 317.803 172.255 318.186C172.157 318.569 171.975 318.925 171.723 319.23C171.47 319.534 171.154 319.779 170.796 319.947C170.439 320.115 170.048 320.202 169.653 320.202C169.072 320.202 168.506 320.014 168.041 319.666C167.576 319.317 167.237 318.828 167.074 318.27L146.087 246.555H158.79Z" fill="#4DBA6C"/>
<path d="M117.024 246.555L103.52 317.015C103.446 317.403 103.459 317.803 103.558 318.186C103.656 318.569 103.838 318.925 104.091 319.23C104.343 319.534 104.659 319.779 105.017 319.947C105.375 320.115 105.765 320.202 106.16 320.202C106.741 320.202 107.307 320.014 107.772 319.666C108.237 319.317 108.576 318.828 108.74 318.27L129.727 246.555H117.024Z" fill="#4DBA6C"/>
<path d="M166.234 241.682L161.615 250.405H58.3661L55.3712 241.682H166.234Z" fill="#1F343F"/>
<path d="M74.8108 250.79H64.5098C64.4077 250.79 64.3098 250.749 64.2376 250.677C64.1654 250.605 64.1248 250.507 64.1248 250.405C64.1248 250.303 64.1654 250.205 64.2376 250.132C64.3098 250.06 64.4077 250.02 64.5098 250.02H74.8108C74.9129 250.02 75.0108 250.06 75.083 250.132C75.1552 250.205 75.1957 250.303 75.1957 250.405C75.1957 250.507 75.1552 250.605 75.083 250.677C75.0108 250.749 74.9129 250.79 74.8108 250.79Z" fill="#4DBA6C"/>
<path d="M104.929 250.79H95.6901C95.588 250.79 95.49 250.749 95.4179 250.677C95.3457 250.605 95.3051 250.507 95.3051 250.405C95.3051 250.303 95.3457 250.205 95.4179 250.132C95.49 250.06 95.588 250.02 95.6901 250.02H104.929C105.031 250.02 105.129 250.06 105.201 250.132C105.273 250.205 105.314 250.303 105.314 250.405C105.314 250.507 105.273 250.605 105.201 250.677C105.129 250.749 105.031 250.79 104.929 250.79Z" fill="#4DBA6C"/>
<path d="M166.242 241.682L162.924 250.405H105.845C105.19 248.234 104.351 245.27 103.466 241.682H166.242Z" fill="#4DBA6C"/>
<path d="M121.035 49.465C121.035 49.465 120.973 49.3495 120.842 49.1416C119.934 47.6943 115.615 41.9201 105.252 42.9826C93.4189 44.2375 88.7996 58.6728 92.4565 64.6394C96.1135 70.606 89.2538 73.3314 82.1555 76.3185C75.0572 79.3057 69.36 89.0216 76.0965 97.7829C82.833 106.544 117.185 108.561 119.402 98.1678C121.62 87.7744 114.591 79.3981 115.43 71.0217L121.035 49.465Z" fill="#4DBA6C"/>
<path d="M114.121 72.4691L113.02 78.1047L111.904 83.8172L105.937 83.0473L106.969 72.1304L107.285 68.8045L114.121 72.4691Z" fill="white"/>
<path d="M114.121 72.4691L113.02 78.1047C109.456 77.6427 107.77 74.7172 106.969 72.1304L107.284 68.8045L114.121 72.4691Z" fill="#4DBA6C"/>
<path d="M92.8492 82.9549C92.8492 82.9549 106.707 77.0884 121.05 84.1098L118.355 92.386L94.7816 91.5237L92.8492 82.9549Z" fill="#A5433E"/>
<path d="M77.0666 101.432C77.0666 101.432 89.5772 88.5366 106.13 88.9216C122.682 89.3065 132.306 102.587 132.306 102.587C132.306 102.587 140.774 115.867 140.582 122.412C140.389 128.956 135.77 147.048 135.77 147.048C137.126 152.412 138.995 157.632 141.352 162.638C145.009 170.144 164.063 184.002 167.143 187.082C170.222 190.161 172.725 220.287 132.113 220.287C91.5019 220.287 75.9117 209.601 75.9117 183.425C75.9117 157.249 77.0666 101.432 77.0666 101.432Z" fill="#A5433E"/>
<path d="M117.601 91.7701C117.553 91.7795 117.503 91.7795 117.455 91.7701C113.862 90.2585 110.018 89.4333 106.122 89.3373C102.71 89.2754 99.3084 89.7376 96.0365 90.7077C95.986 90.7218 95.9331 90.7259 95.881 90.7196C95.8289 90.7134 95.7785 90.6969 95.7328 90.6711C95.687 90.6454 95.6468 90.6109 95.6144 90.5696C95.5819 90.5283 95.558 90.4811 95.5438 90.4305C95.5296 90.38 95.5256 90.3271 95.5319 90.275C95.5381 90.2229 95.5546 90.1725 95.5803 90.1268C95.6061 90.081 95.6406 90.0408 95.6819 90.0083C95.7231 89.9759 95.7704 89.952 95.821 89.9378C99.1701 88.9442 102.652 88.4716 106.145 88.5366C110.132 88.6404 114.065 89.489 117.74 91.0387C117.816 91.0753 117.879 91.1363 117.917 91.2121C117.956 91.2879 117.968 91.3743 117.952 91.4578C117.936 91.5413 117.893 91.6172 117.83 91.6737C117.766 91.7302 117.686 91.7641 117.601 91.7701Z" fill="white"/>
<path d="M164.579 289.923L163.24 295.112L160.73 304.805H153.67L156.041 293.834L156.88 289.923H164.579Z" fill="white"/>
<path d="M164.579 289.923L163.24 295.112L156.041 293.834L156.88 289.923H164.579Z" fill="#4DBA6C"/>
<path d="M184.973 320.21H148.535C148.506 319.183 148.532 318.155 148.612 317.13C149.046 311.965 150.41 306.921 152.638 302.241C157.134 303.396 162.393 302.372 162.393 302.372C162.393 302.372 182.541 312.634 183.434 314.051C183.92 315.021 184.257 316.06 184.435 317.13C184.773 318.701 184.973 320.21 184.973 320.21Z" fill="#A5433E"/>
<path d="M184.973 320.21H148.535C148.506 319.183 148.532 318.155 148.612 317.13H184.435C184.773 318.701 184.973 320.21 184.973 320.21Z" fill="#4DBA6C"/>
<path d="M150.49 187.813C137.487 186.874 128.341 200.816 134.808 212.134C136.44 214.99 138.657 217.138 140.967 218.062C148.666 221.141 164.833 220.117 164.833 220.117L153.285 291.717H167.397C167.397 291.717 194.859 216.784 196.137 207.029C197.415 197.275 190.878 191.247 179.068 190.092C172.186 189.422 159.675 188.483 150.49 187.813Z" fill="#4DBA6C"/>
<path d="M158.351 288.321H158.274C158.224 288.312 158.176 288.293 158.133 288.265C158.09 288.237 158.053 288.201 158.025 288.159C157.996 288.116 157.976 288.069 157.966 288.019C157.956 287.969 157.956 287.917 157.966 287.867L173.479 208.207L139.443 204.212C139.392 204.206 139.343 204.19 139.298 204.165C139.254 204.14 139.214 204.107 139.183 204.067C139.151 204.027 139.128 203.981 139.115 203.932C139.101 203.882 139.097 203.831 139.104 203.78C139.117 203.68 139.169 203.589 139.248 203.526C139.326 203.463 139.427 203.433 139.527 203.442L173.98 207.484C174.032 207.49 174.082 207.507 174.128 207.534C174.173 207.561 174.213 207.596 174.244 207.639C174.275 207.682 174.297 207.73 174.308 207.781C174.32 207.833 174.32 207.886 174.311 207.938L158.72 288.006C158.705 288.093 158.659 288.172 158.592 288.229C158.524 288.287 158.439 288.319 158.351 288.321Z" fill="#1F343F"/>
<path d="M165.603 219.348C165.544 219.348 165.486 219.335 165.434 219.309C165.343 219.263 165.274 219.183 165.243 219.086C165.211 218.989 165.219 218.884 165.264 218.793C165.511 218.293 171.47 206.552 180.37 203.588C180.418 203.572 180.468 203.565 180.519 203.569C180.569 203.572 180.619 203.585 180.664 203.608C180.71 203.631 180.75 203.662 180.783 203.7C180.817 203.738 180.842 203.782 180.858 203.831C180.875 203.879 180.881 203.929 180.878 203.98C180.874 204.03 180.861 204.08 180.838 204.125C180.816 204.171 180.785 204.211 180.746 204.244C180.708 204.278 180.664 204.303 180.616 204.319C172.016 207.183 165.988 219.016 165.988 219.14C165.953 219.209 165.897 219.266 165.828 219.304C165.759 219.341 165.681 219.356 165.603 219.348Z" fill="#1F343F"/>
<path d="M125.438 289.923L124.13 294.973L121.589 304.805H114.537L116.831 294.126L117.74 289.923H125.438Z" fill="white"/>
<path d="M125.438 289.923L124.13 294.973L116.831 294.126L117.74 289.923H125.438Z" fill="#4DBA6C"/>
<path d="M145.84 320.21H109.402C109.373 319.183 109.399 318.155 109.479 317.13C109.912 311.965 111.276 306.921 113.505 302.241C118.001 303.396 123.26 302.372 123.26 302.372C123.26 302.372 143.407 312.634 144.301 314.051C144.787 315.021 145.124 316.06 145.301 317.13C145.64 318.701 145.84 320.21 145.84 320.21Z" fill="#A5433E"/>
<path d="M145.84 320.21H109.402C109.373 319.183 109.399 318.155 109.479 317.13H145.301C145.64 318.701 145.84 320.21 145.84 320.21Z" fill="#4DBA6C"/>
<path d="M157.004 207.029C155.726 216.784 128.264 291.717 128.264 291.717H114.152L125.7 220.117C121.421 220.363 117.13 220.363 112.851 220.117C108.855 219.848 104.744 219.271 101.834 218.108C94.1349 215.028 87.46 198.345 100.032 187.051C100.032 187.051 128.179 188.983 139.943 190.13C151.707 191.278 158.289 197.283 157.004 207.029Z" fill="#1F343F"/>
<path d="M134.808 207.869C131.042 211.354 127.954 215.507 125.7 220.117C121.421 220.363 117.13 220.363 112.851 220.117L134.808 207.869Z" fill="#4DBA6C"/>
<path d="M119.218 288.321H119.141C119.09 288.312 119.043 288.293 119 288.265C118.957 288.237 118.92 288.201 118.892 288.159C118.863 288.116 118.843 288.069 118.833 288.019C118.823 287.969 118.823 287.917 118.833 287.867L134.346 208.207L100.309 204.212C100.259 204.206 100.21 204.19 100.165 204.165C100.12 204.14 100.081 204.107 100.05 204.067C100.018 204.027 99.995 203.981 99.9814 203.932C99.9678 203.882 99.9641 203.831 99.9706 203.78C99.9841 203.68 100.036 203.589 100.114 203.526C100.193 203.463 100.293 203.433 100.394 203.442L134.846 207.484C134.899 207.49 134.949 207.507 134.994 207.534C135.04 207.561 135.079 207.596 135.11 207.639C135.141 207.682 135.163 207.73 135.175 207.781C135.186 207.833 135.187 207.886 135.177 207.938L119.587 288.006C119.571 288.093 119.526 288.172 119.459 288.229C119.391 288.287 119.306 288.319 119.218 288.321Z" fill="#4DBA6C"/>
<path d="M126.462 219.348C126.404 219.348 126.346 219.335 126.293 219.309C126.202 219.263 126.134 219.183 126.102 219.086C126.07 218.989 126.078 218.884 126.124 218.793C126.37 218.293 132.329 206.552 141.229 203.588C141.326 203.555 141.432 203.563 141.523 203.608C141.615 203.653 141.685 203.734 141.718 203.831C141.75 203.927 141.743 204.033 141.698 204.125C141.652 204.217 141.572 204.287 141.475 204.319C132.875 207.183 126.847 219.016 126.847 219.14C126.812 219.209 126.756 219.266 126.687 219.304C126.618 219.341 126.54 219.356 126.462 219.348Z" fill="#4DBA6C"/>
<path d="M128.01 98.4835C120.765 94.6341 110.172 101.817 115.053 114.397C119.934 126.977 153.023 155.262 158.859 155.455C164.695 155.647 164.325 139.803 164.325 139.803C164.325 139.803 140.713 105.282 128.01 98.4835Z" fill="#A5433E"/>
<path d="M138.365 145.608L145.679 101.725H119.695L112.381 145.608H138.365Z" fill="#4DBA6C"/>
<path d="M117.054 99.9386L119.695 101.725H145.679L143.038 99.9386H117.054Z" fill="#E9F3FF"/>
<path d="M117.054 99.9386L109.74 143.822L112.381 145.608L119.695 101.725L117.054 99.9386Z" fill="#1F343F"/>
<path d="M158.859 155.455C157.065 155.232 152.7 150.951 149.713 147.756C147.888 145.824 146.549 144.292 146.549 144.292C143.469 134.791 150.529 131.011 150.529 131.011C150.529 131.011 152.238 131.835 154.571 133.121L154.663 133.167C159.113 135.63 165.742 139.718 167.081 142.944C169.129 147.879 168.644 156.671 158.859 155.455Z" fill="#A5433E"/>
<path d="M155.856 154.061C155.767 154.063 155.68 154.033 155.61 153.977C153.814 152.463 152.105 150.848 150.49 149.142C150.455 149.105 150.427 149.062 150.408 149.015C150.39 148.968 150.38 148.918 150.381 148.867C150.382 148.816 150.392 148.766 150.413 148.719C150.433 148.673 150.462 148.631 150.498 148.595C150.534 148.56 150.577 148.532 150.625 148.513C150.672 148.494 150.722 148.485 150.773 148.486C150.824 148.487 150.874 148.497 150.92 148.517C150.967 148.537 151.009 148.567 151.045 148.603C152.637 150.288 154.323 151.881 156.095 153.376C156.157 153.426 156.202 153.494 156.224 153.57C156.246 153.647 156.244 153.728 156.218 153.803C156.192 153.878 156.143 153.943 156.078 153.99C156.013 154.036 155.936 154.061 155.856 154.061Z" fill="white"/>
<path d="M161.538 137.801C161.458 137.802 161.38 137.778 161.315 137.732C159.683 136.577 157.72 135.346 155.479 134.075C155.396 134.022 155.337 133.94 155.313 133.844C155.289 133.749 155.303 133.648 155.351 133.562C155.399 133.476 155.478 133.412 155.573 133.383C155.667 133.354 155.768 133.362 155.856 133.405C158.12 134.691 160.106 135.938 161.754 137.109C161.817 137.156 161.865 137.222 161.889 137.298C161.914 137.374 161.914 137.455 161.891 137.531C161.867 137.607 161.821 137.674 161.757 137.722C161.694 137.771 161.618 137.798 161.538 137.801Z" fill="white"/>
<path d="M149.713 147.756C147.888 145.824 146.549 144.292 146.549 144.292C143.469 134.791 150.529 131.011 150.529 131.011C150.529 131.011 152.238 131.835 154.571 133.121C155.217 136.269 155.687 142.99 149.713 147.756Z" fill="#1F343F"/>
<path d="M140.836 135.884L143.469 136.593L148.412 141.535C148.412 141.535 152.007 137.363 150.336 133.005L145.848 129.926L143.153 123.636L140.836 135.884Z" fill="white"/>
<path d="M142.792 122.281C141.495 120.605 139.854 119.227 137.98 118.239C136.733 117.569 135.478 119.186 136.679 121.395C136.679 121.395 134.723 122.935 136.602 125.391C136.602 125.391 134.662 127.031 136.54 129.24C136.54 129.24 134.277 130.087 135.87 132.451C137.464 134.814 140.49 136.878 141.552 136.362C142.614 135.846 141.845 133.282 141.845 133.282C141.845 133.282 143.931 132.035 142.614 129.21C142.614 129.21 144.093 127.801 142.807 125.522C142.792 125.522 144.524 124.66 142.792 122.281Z" fill="white"/>
<path d="M140.836 132.859C140.776 132.859 140.717 132.845 140.664 132.818C140.61 132.791 140.564 132.753 140.528 132.705C139.597 131.574 138.444 130.646 137.141 129.979C137.056 129.931 136.993 129.853 136.964 129.76C136.934 129.667 136.942 129.567 136.984 129.479C137.026 129.391 137.099 129.322 137.19 129.287C137.28 129.251 137.381 129.251 137.472 129.287C138.89 130.003 140.141 131.01 141.144 132.243C141.187 132.3 141.213 132.368 141.219 132.439C141.226 132.51 141.212 132.582 141.18 132.646C141.148 132.71 141.099 132.764 141.038 132.801C140.978 132.839 140.908 132.859 140.836 132.859Z" fill="#4DBA6C"/>
<path d="M141.514 129.086C141.449 129.086 141.386 129.07 141.329 129.039C141.273 129.008 141.225 128.963 141.19 128.909C140.203 127.573 138.873 126.528 137.341 125.884C137.246 125.846 137.17 125.772 137.129 125.678C137.089 125.584 137.087 125.478 137.125 125.383C137.163 125.288 137.237 125.212 137.331 125.172C137.425 125.131 137.531 125.13 137.626 125.168C139.314 125.866 140.777 127.017 141.852 128.494C141.89 128.553 141.911 128.621 141.913 128.692C141.915 128.762 141.898 128.832 141.863 128.893C141.828 128.954 141.777 129.004 141.715 129.038C141.654 129.072 141.584 129.089 141.514 129.086Z" fill="#4DBA6C"/>
<path d="M141.514 125.237C141.449 125.237 141.386 125.221 141.329 125.19C141.273 125.159 141.225 125.114 141.19 125.06C140.206 123.697 138.931 122.572 137.456 121.765C137.365 121.718 137.297 121.637 137.266 121.539C137.235 121.442 137.244 121.336 137.291 121.245C137.338 121.154 137.419 121.086 137.516 121.055C137.614 121.024 137.72 121.033 137.81 121.08C139.408 121.944 140.785 123.164 141.837 124.644C141.874 124.702 141.895 124.769 141.898 124.838C141.9 124.907 141.884 124.976 141.851 125.036C141.818 125.097 141.769 125.148 141.71 125.183C141.65 125.218 141.583 125.237 141.514 125.237Z" fill="#4DBA6C"/>
<path d="M105.806 144.161C105.806 144.161 103.628 145.77 100.248 148.01C94.181 151.983 84.2495 157.911 76.1658 159.974C63.5936 163.185 54.994 161.514 54.355 153.43C53.716 145.346 65.1333 113.635 77.0665 101.463C84.2495 94.1491 95.7978 112.757 90.4086 121.611C87.0288 127.162 82.4557 135.207 82.4557 135.207L91.8791 132.505L97.2144 130.965C106.191 134.406 105.806 144.161 105.806 144.161Z" fill="#A5433E"/>
<path d="M76.1658 160.328C76.0637 160.341 75.961 160.312 75.8801 160.248C75.7993 160.185 75.7469 160.092 75.7347 159.99C75.7224 159.887 75.7513 159.785 75.8148 159.704C75.8783 159.623 75.9713 159.571 76.0734 159.558C83.3565 157.703 92.1717 152.668 98.2846 148.78C98.3702 148.731 98.4713 148.717 98.567 148.741C98.6627 148.764 98.7458 148.823 98.7991 148.906C98.8524 148.989 98.8719 149.089 98.8535 149.186C98.8351 149.283 98.7803 149.369 98.7003 149.427C92.5413 153.345 83.6414 158.419 76.2659 160.305L76.1658 160.328Z" fill="white"/>
<path d="M82.4558 135.561C82.3884 135.561 82.3223 135.543 82.2641 135.509C82.2059 135.475 82.1576 135.426 82.1241 135.368C82.0906 135.309 82.073 135.243 82.0731 135.176C82.0732 135.108 82.091 135.042 82.1247 134.984C82.1709 134.907 86.744 126.869 90.0853 121.38C92.1486 117.992 91.7713 112.495 89.1306 107.376C86.9673 103.188 83.7953 100.354 81.0469 100.162C80.9448 100.155 80.8497 100.107 80.7826 100.03C80.7154 99.9528 80.6817 99.8521 80.6889 99.75C80.696 99.6479 80.7434 99.5528 80.8207 99.4857C80.8979 99.4185 80.9987 99.3848 81.1008 99.392C84.1803 99.6076 87.4985 102.533 89.8158 107.022C92.5797 112.411 92.9493 118.169 90.7474 121.78C88.0374 126.23 84.519 132.351 83.2718 134.545L89.8081 132.666C89.8587 132.652 89.9115 132.648 89.9637 132.654C90.0158 132.661 90.0662 132.677 90.1119 132.703C90.1577 132.729 90.1979 132.763 90.2303 132.804C90.2627 132.846 90.2867 132.893 90.3009 132.944C90.315 132.994 90.3191 133.047 90.3128 133.099C90.3065 133.151 90.2901 133.202 90.2643 133.247C90.2386 133.293 90.2041 133.333 90.1628 133.366C90.1215 133.398 90.0743 133.422 90.0237 133.436L82.5712 135.569L82.4558 135.561Z" fill="white"/>
<path d="M105.806 144.161C105.806 144.161 103.628 145.77 100.248 148.01C91.9715 143.799 91.6636 135.63 91.8792 132.505L97.2145 130.965C106.191 134.406 105.806 144.161 105.806 144.161Z" fill="#1F343F"/>
<path d="M97.8534 133.059C97.8534 133.059 99.2007 139.603 103.689 141.528L112.219 134.083C112.219 134.083 120.75 133.713 121.812 132.943C122.138 132.655 122.397 132.299 122.571 131.9C122.745 131.501 122.831 131.069 122.821 130.634C123.309 130.217 123.669 129.67 123.857 129.056C124.045 128.443 124.054 127.788 123.883 127.169C124.387 126.602 124.725 125.907 124.861 125.16C124.997 124.413 124.925 123.644 124.653 122.935C124.653 122.935 127.009 118.939 127.348 117.546C127.686 116.152 126 115.721 124.753 117.068C124.03 117.98 123.129 118.735 122.105 119.286C121.435 119.578 114.983 120.872 114.983 120.872C114.436 120.627 114.001 120.184 113.767 119.632L114.468 115.436C113.64 115.812 112.896 116.35 112.281 117.02C111.666 117.689 111.192 118.475 110.888 119.332C110.071 122.073 108.678 127.901 108.678 127.901L97.8534 133.059Z" fill="white"/>
<path d="M121.319 241.682H55.3789C55.3789 241.682 37.0557 188.722 38.2105 158.404C38.3029 155.878 38.5082 153.458 38.8264 151.144C39.9736 142.767 52.3302 143.314 52.6843 151.759C52.9692 158.311 53.7083 165.371 54.763 172.616H100.271L102.696 172.677C110.957 172.677 113.929 177.628 114.899 187.02C116.446 201.902 121.319 241.682 121.319 241.682Z" fill="#4DBA6C"/>
<path d="M100.279 173.001H54.7708C54.6787 173 54.59 172.966 54.5208 172.905C54.4516 172.844 54.4064 172.761 54.3935 172.669C53.2849 165.04 52.5843 158.042 52.3148 151.775C52.3128 151.724 52.3207 151.674 52.3382 151.626C52.3556 151.579 52.3823 151.535 52.4166 151.498C52.4509 151.461 52.4922 151.431 52.5382 151.41C52.5841 151.388 52.6338 151.376 52.6844 151.374C52.7352 151.371 52.7861 151.379 52.8341 151.396C52.882 151.413 52.926 151.439 52.9634 151.474C53.0008 151.508 53.0308 151.55 53.0517 151.597C53.0725 151.643 53.0838 151.693 53.0847 151.744C53.3542 157.865 54.0317 164.755 55.1095 172.231H100.286C100.337 172.231 100.387 172.242 100.433 172.261C100.48 172.281 100.522 172.31 100.557 172.346C100.593 172.382 100.621 172.425 100.64 172.472C100.658 172.519 100.668 172.569 100.667 172.619C100.667 172.67 100.656 172.72 100.637 172.766C100.617 172.813 100.588 172.855 100.552 172.89C100.516 172.926 100.473 172.954 100.426 172.973C100.379 172.992 100.329 173.001 100.279 173.001Z" fill="#1F343F"/>
<path d="M103.258 241.112C103.169 241.112 103.083 241.082 103.014 241.025C102.946 240.969 102.898 240.891 102.881 240.804C100.817 231.188 90.9552 182.778 99.2084 173.863C99.2416 173.822 99.283 173.788 99.3298 173.764C99.3766 173.739 99.4279 173.725 99.4806 173.721C99.5332 173.718 99.5861 173.725 99.6358 173.742C99.6856 173.76 99.7312 173.788 99.7698 173.824C99.8084 173.86 99.8392 173.903 99.8603 173.951C99.8814 174 99.8923 174.052 99.8923 174.105C99.8924 174.158 99.8816 174.21 99.8606 174.258C99.8397 174.307 99.809 174.35 99.7704 174.386C91.602 183.202 102.373 234.784 103.62 240.643C103.64 240.741 103.621 240.845 103.567 240.93C103.512 241.015 103.426 241.075 103.327 241.097H103.243L103.258 241.112Z" fill="#1F343F"/>
<path d="M111.996 51.6823C105.575 55.1775 102.18 74.8789 113.636 75.8412C125.092 76.8036 125.084 44.5608 111.996 51.6823Z" fill="white"/>
<path d="M104.652 67.5573C104.652 67.5573 106.869 61.9756 109.656 58.5111C109.656 58.5111 116.492 62.8456 122.359 60.7284C128.225 58.6112 131.505 47.3555 126.501 45.1383C121.497 42.921 118.802 47.9329 118.802 47.9329C118.802 47.9329 97.276 41.6738 104.652 67.5573Z" fill="#4DBA6C"/>
<path d="M107.092 65.825C107.092 65.825 105.267 58.6112 99.4933 60.0509C93.7192 61.4906 99.016 72.4691 107.292 68.8122L107.092 65.825Z" fill="white"/>
<path d="M104.859 67.5265C104.781 67.527 104.705 67.5037 104.64 67.4597C104.575 67.4157 104.526 67.3531 104.498 67.2801C104.498 67.2416 102.85 63.1689 99.424 62.6608C99.3734 62.6532 99.3249 62.6358 99.2811 62.6094C99.2373 62.5831 99.1991 62.5483 99.1687 62.5072C99.1383 62.4661 99.1163 62.4194 99.104 62.3698C99.0916 62.3202 99.0892 62.2687 99.0968 62.2181C99.1044 62.1676 99.1218 62.119 99.1482 62.0752C99.1745 62.0314 99.2092 61.9932 99.2504 61.9629C99.2915 61.9325 99.3381 61.9105 99.3877 61.8981C99.4374 61.8858 99.4889 61.8834 99.5395 61.8909C103.389 62.476 105.144 66.8182 105.213 67.003C105.236 67.0609 105.244 67.1234 105.237 67.1851C105.23 67.2468 105.208 67.3058 105.173 67.3573C105.138 67.4087 105.092 67.4509 105.037 67.4804C104.982 67.5099 104.921 67.5257 104.859 67.5265Z" fill="#4DBA6C"/>
<path d="M101.741 66.8259C101.641 66.8259 101.544 66.7864 101.472 66.7159C101.4 66.6453 101.358 66.5494 101.356 66.4486C101.399 65.4481 101.716 64.4785 102.273 63.6463C102.327 63.5595 102.413 63.4978 102.513 63.4747C102.612 63.4516 102.717 63.469 102.804 63.5231C102.891 63.5772 102.952 63.6636 102.975 63.7632C102.998 63.8628 102.981 63.9675 102.927 64.0543C102.465 64.7627 102.199 65.581 102.157 66.4255C102.158 66.4761 102.149 66.5264 102.131 66.5735C102.112 66.6205 102.085 66.6636 102.05 66.7C102.015 66.7365 101.973 66.7657 101.927 66.786C101.88 66.8062 101.83 66.8172 101.78 66.8182L101.741 66.8259Z" fill="#4DBA6C"/>
<path d="M110.256 62.8225C110.256 62.8225 111.627 60.3435 113.505 61.3982C113.52 61.2501 113.587 61.1121 113.694 61.009C113.801 60.906 113.942 60.8447 114.09 60.8362C114.591 60.8362 114.575 62.4221 114.575 62.4221C113.123 62.2647 111.655 62.4009 110.256 62.8225Z" fill="#4DBA6C"/>
<path d="M121.019 64.5162C121.019 64.5162 120.981 61.9294 119.479 62.5761C119.482 62.4621 119.451 62.3498 119.391 62.2529C119.331 62.1559 119.244 62.0784 119.141 62.0295C118.586 61.914 118.371 63.3922 118.371 63.3922C119.351 63.4754 120.279 63.8692 121.019 64.5162Z" fill="#4DBA6C"/>
<path d="M113.9 66.021C113.956 65.2961 113.527 64.672 112.942 64.6272C112.356 64.5824 111.837 65.1338 111.782 65.8588C111.726 66.5837 112.155 67.2077 112.74 67.2526C113.325 67.2974 113.845 66.746 113.9 66.021Z" fill="#4DBA6C"/>
<path d="M113.401 65.5127C113.413 65.3558 113.296 65.2189 113.139 65.2069C112.982 65.1949 112.845 65.3123 112.833 65.4691C112.821 65.626 112.938 65.7629 113.095 65.7749C113.252 65.7869 113.389 65.6695 113.401 65.5127Z" fill="white"/>
<path d="M120.935 66.4656C120.993 65.7385 120.564 65.111 119.977 65.0641C119.391 65.0172 118.868 65.5685 118.81 66.2956C118.751 67.0227 119.18 67.6502 119.767 67.6971C120.354 67.7441 120.876 67.1927 120.935 66.4656Z" fill="#4DBA6C"/>
<path d="M119.643 65.9907C119.655 65.8339 119.537 65.697 119.381 65.685C119.224 65.6729 119.087 65.7904 119.075 65.9472C119.063 66.1041 119.18 66.241 119.337 66.253C119.494 66.265 119.631 66.1476 119.643 65.9907Z" fill="white"/>
<path d="M116.331 70.6907C116.051 70.6901 115.773 70.6459 115.507 70.5598C115.413 70.5254 115.337 70.4561 115.293 70.3665C115.25 70.2768 115.243 70.1739 115.274 70.0792C115.305 69.9845 115.371 69.9055 115.459 69.8587C115.547 69.812 115.65 69.8011 115.745 69.8284C115.745 69.8284 116.839 70.1749 117.162 69.4974C117.182 69.4637 117.193 69.4251 117.193 69.3858C117.193 69.3464 117.182 69.3078 117.162 69.2741C116.865 69.0279 116.493 68.8895 116.107 68.8815C116.007 68.8736 115.913 68.8264 115.847 68.75C115.78 68.6737 115.747 68.5743 115.753 68.4734L115.93 65.9097C115.94 65.8097 115.988 65.7172 116.064 65.6513C116.14 65.5854 116.238 65.5512 116.338 65.5556C116.439 65.5635 116.533 65.6107 116.599 65.687C116.665 65.7634 116.699 65.8627 116.692 65.9636L116.538 68.1732C116.791 68.2026 117.035 68.2825 117.256 68.4082C117.477 68.5338 117.67 68.7026 117.824 68.9046C117.904 69.0481 117.947 69.2098 117.947 69.3742C117.947 69.5386 117.904 69.7003 117.824 69.8438C117.683 70.1135 117.467 70.3367 117.202 70.4869C116.937 70.637 116.635 70.7078 116.331 70.6907Z" fill="#4DBA6C"/>
<path d="M116.2 73.0465C116.2 73.0465 113.282 74.7403 111.657 71.168L116.2 73.0465Z" fill="white"/>
<path d="M148.758 162.83V311.133C148.758 313.578 150.74 315.56 153.185 315.56C155.63 315.56 157.612 313.578 157.612 311.133V162.83C157.612 160.386 155.63 158.404 153.185 158.404C150.74 158.404 148.758 160.386 148.758 162.83Z" fill="#4DBA6C"/>
<path d="M238.888 158.404H98.5771C96.1322 158.404 94.1503 160.385 94.1503 162.83C94.1503 165.275 96.1322 167.257 98.5771 167.257H238.888C241.333 167.257 243.315 165.275 243.315 162.83C243.315 160.385 241.333 158.404 238.888 158.404Z" fill="#1F343F"/>
<path d="M120.804 158.404H67.4892C65.0443 158.404 63.0624 160.385 63.0624 162.83C63.0624 165.275 65.0443 167.257 67.4892 167.257H120.804C123.249 167.257 125.23 165.275 125.23 162.83C125.23 160.385 123.249 158.404 120.804 158.404Z" fill="#E9F3FF"/>
<path d="M212.32 305.228H204.759L201.795 294.581L200.471 289.83L209.232 288.776L210.025 293.002L212.32 305.228Z" fill="white"/>
<path d="M210.025 293.002L201.795 294.581L200.471 289.83L209.232 288.776L210.025 293.002Z" fill="#4DBA6C"/>
<path d="M213.205 302.541C209.514 302.57 205.824 302.408 202.15 302.056C197.969 308.793 183.426 313.797 182.826 314.821C182.566 315.562 182.459 316.347 182.51 317.13C182.51 318.616 182.656 320.21 182.656 320.21H214.837C214.826 314.283 214.279 308.37 213.205 302.541Z" fill="#4DBA6C"/>
<path d="M214.806 317.13H182.525C182.525 318.616 182.671 320.21 182.671 320.21H214.853C214.853 319.171 214.837 318.154 214.806 317.13Z" fill="#1F343F"/>
<path d="M238.403 194.85C238.403 194.85 178.83 193.564 173.733 194.85C168.636 196.136 169.037 204.088 169.73 209.224C170.423 214.359 198.215 291.855 198.215 291.855H210.972C210.972 291.855 203.358 242.837 199.84 226.161C199.84 226.161 254.833 236.169 266.05 233.09C277.267 230.01 276.705 207.938 276.705 207.938L238.403 194.85Z" fill="#4DBA6C"/>
<path d="M202.789 289.161C202.709 289.16 202.631 289.134 202.566 289.088C202.501 289.041 202.452 288.975 202.427 288.899L183.488 214.22C183.474 214.164 183.473 214.105 183.485 214.048C183.497 213.991 183.521 213.938 183.557 213.892C183.592 213.846 183.638 213.809 183.69 213.783C183.742 213.757 183.799 213.743 183.857 213.743H241.976L247.727 203.165C247.751 203.12 247.784 203.081 247.823 203.049C247.863 203.017 247.908 202.993 247.957 202.979C248.005 202.965 248.056 202.96 248.106 202.966C248.157 202.971 248.206 202.986 248.25 203.011C248.295 203.035 248.334 203.068 248.366 203.107C248.398 203.147 248.421 203.192 248.436 203.241C248.45 203.289 248.454 203.34 248.449 203.39C248.444 203.441 248.428 203.49 248.404 203.534L242.538 214.313C242.504 214.373 242.455 214.424 242.396 214.459C242.336 214.494 242.268 214.513 242.199 214.513H184.358L203.197 288.676C203.209 288.725 203.212 288.776 203.205 288.826C203.198 288.876 203.181 288.924 203.156 288.968C203.13 289.012 203.096 289.05 203.055 289.08C203.015 289.111 202.969 289.133 202.919 289.145L202.789 289.161Z" fill="#1F343F"/>
<path d="M198.177 225.068C198.115 225.067 198.054 225.051 198 225.022C197.884 224.96 186.544 218.909 180.023 210.086C179.986 210.046 179.959 209.999 179.941 209.948C179.924 209.896 179.918 209.842 179.923 209.788C179.928 209.734 179.945 209.682 179.971 209.635C179.998 209.588 180.034 209.547 180.078 209.515C180.121 209.483 180.171 209.46 180.224 209.449C180.277 209.437 180.331 209.437 180.384 209.448C180.437 209.459 180.487 209.481 180.531 209.513C180.575 209.544 180.612 209.585 180.639 209.632C187.044 218.308 198.239 224.259 198.346 224.336C198.425 224.374 198.488 224.438 198.526 224.517C198.563 224.595 198.573 224.685 198.554 224.77C198.534 224.855 198.486 224.93 198.417 224.985C198.349 225.039 198.264 225.068 198.177 225.068Z" fill="#1F343F"/>
<path d="M242.214 214.482C242.15 214.482 242.087 214.465 242.03 214.435C241.974 214.404 241.926 214.359 241.891 214.305C235.732 204.905 241.452 199.431 241.514 199.377C241.589 199.315 241.686 199.285 241.783 199.292C241.88 199.299 241.971 199.342 242.038 199.413C242.104 199.485 242.141 199.579 242.141 199.676C242.141 199.774 242.104 199.868 242.037 199.939C241.814 200.147 236.733 205.043 242.538 213.881C242.577 213.94 242.6 214.007 242.603 214.078C242.607 214.148 242.591 214.218 242.558 214.279C242.524 214.341 242.475 214.393 242.414 214.429C242.354 214.464 242.285 214.483 242.214 214.482Z" fill="#1F343F"/>
<path d="M167.82 288.776V305.228H159.829L158.697 295.705L158.004 289.83L167.82 288.776Z" fill="white"/>
<path d="M158.004 289.83L167.82 288.776V293.818L158.697 295.705L158.004 289.83Z" fill="#4DBA6C"/>
<path d="M171.246 320.21H129.288C129.416 319.174 129.603 318.145 129.85 317.13C129.999 316.297 130.333 315.508 130.828 314.821C131.859 313.797 150.144 308.793 157.227 302.056C161.355 302.429 165.5 302.591 169.645 302.541C170.549 307.355 171.064 312.234 171.185 317.13C171.231 318.154 171.246 319.155 171.246 320.21Z" fill="#4DBA6C"/>
<path d="M171.246 320.21H129.288C129.416 319.174 129.603 318.145 129.85 317.13H171.2C171.231 318.154 171.246 319.155 171.246 320.21Z" fill="#1F343F"/>
<path d="M210.895 194.85C210.895 194.85 155.21 193.564 148.281 194.85C141.352 196.136 139.912 204.088 139.558 209.224C139.204 214.359 156.495 291.855 156.495 291.855H169.322C169.322 291.855 171.377 242.837 170.861 226.161C170.861 226.161 222.19 236.169 237.587 233.09C252.985 230.01 257.604 207.938 257.604 207.938L210.895 194.85Z" fill="#1F343F"/>
<path d="M156.488 292.24C156.4 292.24 156.315 292.211 156.246 292.156C156.178 292.102 156.13 292.025 156.111 291.94C155.402 288.768 138.819 214.22 139.173 209.193C139.774 200.424 142.815 195.466 148.212 194.473C155.102 193.195 208.632 194.411 210.911 194.473C210.961 194.474 211.011 194.484 211.058 194.505C211.104 194.525 211.146 194.554 211.181 194.591C211.216 194.627 211.243 194.67 211.262 194.717C211.28 194.764 211.289 194.815 211.288 194.865C211.284 194.967 211.241 195.063 211.168 195.133C211.095 195.203 210.997 195.243 210.895 195.242C210.341 195.242 155.171 193.972 148.358 195.242C143.354 196.166 140.52 200.886 139.951 209.262C139.612 214.182 156.703 291.008 156.888 291.786C156.899 291.835 156.901 291.887 156.892 291.937C156.884 291.987 156.865 292.035 156.838 292.078C156.811 292.121 156.775 292.158 156.734 292.187C156.692 292.216 156.645 292.237 156.596 292.248H156.511L156.488 292.24Z" fill="#4DBA6C"/>
<path d="M163.163 289.161C163.066 289.161 162.972 289.125 162.901 289.059C162.829 288.993 162.785 288.903 162.778 288.806L156.365 214.128C156.36 214.075 156.367 214.021 156.385 213.971C156.402 213.921 156.43 213.874 156.466 213.835C156.502 213.796 156.546 213.765 156.595 213.744C156.644 213.723 156.696 213.712 156.75 213.712H210.988L221.143 203.057C221.215 202.992 221.309 202.957 221.406 202.958C221.503 202.96 221.596 202.998 221.666 203.065C221.736 203.132 221.779 203.224 221.784 203.321C221.79 203.418 221.759 203.513 221.697 203.588L211.434 214.366C211.399 214.405 211.356 214.435 211.308 214.456C211.261 214.478 211.209 214.489 211.157 214.49H157.165L163.548 288.753C163.552 288.803 163.546 288.854 163.53 288.902C163.515 288.951 163.49 288.995 163.457 289.034C163.424 289.073 163.384 289.104 163.339 289.127C163.293 289.151 163.244 289.164 163.193 289.168L163.163 289.161Z" fill="#4DBA6C"/>
<path d="M169.068 225.068C168.996 225.067 168.927 225.045 168.868 225.006C168.775 224.945 159.205 218.901 152.877 210.086C152.842 210.045 152.816 209.998 152.801 209.947C152.786 209.896 152.781 209.842 152.787 209.789C152.794 209.736 152.811 209.685 152.838 209.639C152.865 209.593 152.902 209.554 152.945 209.522C152.989 209.491 153.038 209.47 153.09 209.459C153.143 209.448 153.196 209.448 153.249 209.459C153.301 209.47 153.35 209.491 153.394 209.523C153.437 209.554 153.473 209.593 153.501 209.639C159.729 218.324 169.175 224.267 169.268 224.359C169.337 224.404 169.39 224.47 169.419 224.547C169.448 224.624 169.452 224.708 169.43 224.788C169.407 224.867 169.36 224.937 169.295 224.987C169.23 225.038 169.15 225.066 169.068 225.068Z" fill="#4DBA6C"/>
<path d="M211.149 214.482C211.083 214.482 211.018 214.465 210.96 214.433C210.902 214.401 210.853 214.354 210.818 214.297C209.025 211.364 208.447 208.515 209.102 205.828C209.856 203.149 211.561 200.836 213.898 199.323C213.986 199.27 214.091 199.254 214.191 199.278C214.29 199.303 214.376 199.366 214.429 199.454C214.482 199.542 214.498 199.647 214.474 199.746C214.449 199.846 214.386 199.932 214.298 199.985C212.145 201.404 210.567 203.544 209.848 206.021C209.248 208.492 209.794 211.141 211.481 213.889C211.518 213.948 211.539 214.016 211.541 214.085C211.543 214.155 211.527 214.224 211.493 214.285C211.459 214.346 211.409 214.396 211.348 214.431C211.288 214.465 211.219 214.483 211.149 214.482Z" fill="#4DBA6C"/>
<path d="M231.29 66.5333C231.29 66.5333 230.073 68.5735 229.365 69.7976C228.657 71.0218 232.699 71.5376 232.699 71.5376L231.29 66.5333Z" fill="white"/>
<path d="M232.698 71.9225H232.652C232.129 71.8532 229.488 71.4683 228.988 70.4674C228.921 70.3322 228.889 70.1821 228.896 70.0313C228.903 69.8806 228.947 69.7339 229.026 69.6052C229.734 68.3811 230.951 66.3332 230.951 66.3332L231.613 66.7258C231.613 66.7258 230.397 68.766 229.688 69.9901C229.676 70.0097 229.669 70.0324 229.669 70.0555C229.669 70.0787 229.676 70.1014 229.688 70.121C229.896 70.5444 231.444 70.9833 232.768 71.1526C232.818 71.1572 232.867 71.1716 232.912 71.1952C232.957 71.2187 232.997 71.2509 233.03 71.2899C233.062 71.3288 233.087 71.3738 233.102 71.4223C233.117 71.4707 233.123 71.5217 233.118 71.5722C233.113 71.6228 233.099 71.6719 233.075 71.7169C233.052 71.7619 233.02 71.8017 232.981 71.8343C232.942 71.8668 232.897 71.8913 232.848 71.9065C232.8 71.9216 232.749 71.9271 232.698 71.9225Z" fill="#4DBA6C"/>
<path d="M251.545 64.5393C250.96 74.3168 242.761 78.5589 237.318 77.7428C236.751 77.664 236.196 77.5193 235.663 77.3117C229.888 75.002 229.08 61.914 231.428 55.2391C232.968 50.8739 249.905 47.5403 251.445 61.0133C251.584 62.1832 251.618 63.3633 251.545 64.5393Z" fill="white"/>
<path d="M251.545 64.5393C250.96 74.3169 242.761 78.5589 237.318 77.7428C241.937 74.032 242.992 64.9936 242.992 64.9936C242.992 64.9936 247.419 64.6394 251.545 64.5393Z" fill="#4DBA6C"/>
<path d="M248.412 72.2767L249.035 84.2561L241.052 84.6872L241.414 71.5376L248.412 72.2767Z" fill="white"/>
<path d="M225.908 39.9724C225.908 39.9724 217.955 45.7465 222.575 55.116C227.194 64.4855 238.611 60.3743 238.611 60.3743L239.897 67.4957C239.897 67.4957 241.306 75.0021 247.534 75.0021C253.763 75.0021 259.791 62.938 259.721 61.3367C259.652 59.7353 256.642 55.6934 256.642 55.6934C256.642 55.6934 256.834 46.9706 253.693 45.4924C250.552 44.0143 241.437 47.3556 241.437 47.3556C241.437 47.3556 234.508 41.1272 225.908 39.9724Z" fill="#4DBA6C"/>
<path d="M239.081 69.0201C239.081 69.0201 241.26 63.1844 245.625 64.2083C249.99 65.2323 246.911 72.9311 240.043 72.2305L239.081 69.0201Z" fill="white"/>
<path d="M240.682 70.7831C240.636 70.7916 240.589 70.7916 240.544 70.7831C240.497 70.7644 240.454 70.7366 240.417 70.7014C240.381 70.6661 240.352 70.624 240.332 70.5776C240.312 70.5311 240.301 70.4811 240.301 70.4305C240.3 70.3799 240.309 70.3296 240.328 70.2826C240.39 70.121 241.868 66.3639 245.248 65.8558C245.348 65.8424 245.45 65.8686 245.532 65.9289C245.614 65.9892 245.669 66.0789 245.686 66.1792C245.694 66.2292 245.692 66.2803 245.68 66.3295C245.668 66.3786 245.646 66.4249 245.616 66.4657C245.586 66.5064 245.548 66.5409 245.505 66.567C245.461 66.5932 245.413 66.6105 245.363 66.618C242.438 67.0645 241.059 70.529 241.044 70.5598C241.012 70.6284 240.961 70.6862 240.897 70.7259C240.832 70.7656 240.758 70.7855 240.682 70.7831Z" fill="#4DBA6C"/>
<path d="M243.361 70.1826C243.311 70.1816 243.261 70.1706 243.215 70.1503C243.168 70.1301 243.126 70.1009 243.091 70.0644C243.056 70.0279 243.029 69.9849 243.011 69.9378C242.992 69.8907 242.983 69.8405 242.984 69.7899C242.94 69.0721 242.706 68.3788 242.307 67.7805C242.253 67.6938 242.235 67.589 242.258 67.4894C242.281 67.3898 242.343 67.3034 242.43 67.2493C242.517 67.1952 242.621 67.1778 242.721 67.2009C242.821 67.224 242.907 67.2857 242.961 67.3725C243.437 68.1001 243.703 68.9443 243.731 69.813C243.727 69.9098 243.687 70.0016 243.619 70.0701C243.55 70.1386 243.458 70.1788 243.361 70.1826Z" fill="#4DBA6C"/>
<path d="M231.906 85.2646C231.906 85.2646 248.412 76.3186 261.115 82.7163L258.52 91.185L235.378 92.7248L231.906 85.2646Z" fill="#4DBA6C"/>
<path d="M228.603 94.1183C236.028 89.7238 244.645 87.7714 253.239 88.5366C267.774 89.7916 272.586 97.0054 274.126 100.955C275.666 104.904 284.134 164.955 281.055 209.224C281.055 209.224 260.522 216.922 239.42 214.613C218.317 212.303 202.173 191.124 202.173 191.124C202.173 191.124 217.955 153.399 219.11 134.152C220.265 114.905 222.028 99.9155 228.603 94.1183Z" fill="#4DBA6C"/>
<path d="M236.417 90.9309C236.315 90.9473 236.211 90.9224 236.127 90.8618C236.043 90.8011 235.987 90.7097 235.971 90.6076C235.954 90.5055 235.979 90.4011 236.04 90.3174C236.1 90.2336 236.192 90.1774 236.294 90.1611C241.765 88.333 247.553 87.644 253.301 88.1363C254.924 88.2723 256.539 88.5037 258.135 88.8292C258.185 88.8393 258.232 88.859 258.274 88.8873C258.316 88.9156 258.352 88.9519 258.38 88.9941C258.408 89.0363 258.427 89.0835 258.437 89.1332C258.446 89.1828 258.446 89.2339 258.436 89.2834C258.414 89.3825 258.354 89.4691 258.269 89.5251C258.184 89.581 258.081 89.602 257.982 89.5837C256.415 89.2651 254.832 89.0389 253.239 88.9062C247.595 88.425 241.912 89.1036 236.54 90.9002L236.417 90.9309Z" fill="#1F343F"/>
<path d="M172.855 104.643C172.663 104.581 166.057 99.8308 166.057 99.8308C166.057 99.8308 163.494 96.8129 162.339 96.4972C160.622 95.9921 158.965 95.3029 157.396 94.4416C156.626 93.8642 154.317 91.1696 153.1 90.7847C151.884 90.3997 151.884 92.771 153.293 94.6341C154.702 96.4972 155.087 97.4596 154.063 98.0986C153.039 98.7376 148.543 98.4219 147.195 97.9677C145.848 97.5135 142.191 95.5272 141.167 95.4656C140.143 95.404 140.143 97.1362 141.298 97.9061C142.453 98.676 148.288 103.041 150.475 103.619C152.661 104.196 161.507 104.004 161.507 104.004L169.784 111.448L172.855 104.643Z" fill="white"/>
<path d="M180.708 106.729L172.917 102.302C172.917 102.302 164.933 103.557 164.933 115.005L171.477 121.357C171.477 121.357 181.386 116.445 180.708 106.729Z" fill="#1F343F"/>
<path d="M231.043 93.4793C222.936 93.3176 204.097 123.374 204.097 123.374L177.406 107.075C177.406 107.075 171.631 109.385 171.377 117.469C171.377 117.469 194.859 147.363 204.097 149.673C213.336 151.983 237.071 126.577 241.306 118.493C245.54 110.409 243.616 93.7333 231.043 93.4793Z" fill="#4DBA6C"/>
<path d="M202.611 140.119C202.519 140.118 202.431 140.084 202.361 140.023C202.292 139.963 202.247 139.879 202.234 139.788C201.595 134.621 202.039 129.377 203.535 124.39C203.568 124.293 203.638 124.213 203.73 124.168C203.821 124.122 203.927 124.115 204.024 124.148C204.121 124.18 204.201 124.25 204.247 124.342C204.292 124.433 204.299 124.539 204.267 124.636C202.808 129.504 202.375 134.621 202.996 139.665C203.004 139.715 203.002 139.766 202.99 139.815C202.978 139.864 202.956 139.91 202.926 139.951C202.896 139.992 202.858 140.026 202.815 140.052C202.771 140.079 202.723 140.096 202.673 140.103H202.619L202.611 140.119Z" fill="#1F343F"/>
<path d="M220.134 142.282C220.054 142.283 219.975 142.259 219.909 142.214C219.843 142.168 219.793 142.103 219.766 142.028C219.739 141.952 219.736 141.87 219.758 141.793C219.78 141.716 219.825 141.647 219.888 141.597C228.857 134.191 238.419 123.197 240.967 118.316C243.6 113.288 243.623 105.566 241.021 100.347C239.258 96.7975 236.402 94.6187 232.86 94.0259C232.81 94.0178 232.761 93.9999 232.718 93.973C232.674 93.9462 232.636 93.9111 232.606 93.8696C232.576 93.8281 232.554 93.7812 232.543 93.7314C232.531 93.6816 232.529 93.6299 232.537 93.5794C232.545 93.5288 232.563 93.4804 232.59 93.4367C232.617 93.3931 232.652 93.3552 232.693 93.3252C232.735 93.2952 232.782 93.2736 232.831 93.2618C232.881 93.2499 232.933 93.2479 232.983 93.256C236.833 93.8873 239.828 96.2201 241.714 99.9925C244.416 105.382 244.393 113.442 241.652 118.662C239.066 123.605 229.419 134.714 220.38 142.174C220.314 142.239 220.226 142.277 220.134 142.282Z" fill="#1F343F"/>
<path d="M229.311 246.555L242.815 317.015C242.888 317.403 242.875 317.803 242.777 318.186C242.678 318.569 242.496 318.925 242.244 319.23C241.992 319.534 241.675 319.779 241.318 319.947C240.96 320.115 240.569 320.202 240.174 320.202C239.593 320.202 239.028 320.014 238.563 319.666C238.098 319.317 237.758 318.828 237.595 318.27L216.608 246.555H229.311Z" fill="#4DBA6C"/>
<path d="M187.545 246.555L174.041 317.015C173.967 317.403 173.98 317.803 174.079 318.186C174.178 318.569 174.36 318.925 174.612 319.23C174.864 319.534 175.18 319.779 175.538 319.947C175.896 320.115 176.286 320.202 176.682 320.202C177.263 320.202 177.828 320.014 178.293 319.666C178.758 319.317 179.098 318.828 179.261 318.27L200.248 246.555H187.545Z" fill="#1F343F"/>
<path d="M282.241 246.555L295.744 317.015C295.818 317.403 295.805 317.803 295.706 318.186C295.608 318.569 295.426 318.925 295.173 319.23C294.921 319.534 294.605 319.779 294.247 319.947C293.889 320.115 293.499 320.202 293.104 320.202C292.523 320.202 291.957 320.014 291.492 319.666C291.027 319.317 290.688 318.828 290.524 318.27L269.537 246.555H282.241Z" fill="#1F343F"/>
<path d="M240.474 246.555L226.971 317.015C226.897 317.403 226.91 317.803 227.009 318.186C227.107 318.569 227.289 318.925 227.541 319.23C227.794 319.534 228.11 319.779 228.468 319.947C228.826 320.115 229.216 320.202 229.611 320.202C230.192 320.202 230.758 320.014 231.223 319.666C231.688 319.317 232.027 318.828 232.19 318.27L253.177 246.555H240.474Z" fill="#1F343F"/>
<path d="M289.685 241.682L285.066 250.405H182.987L178.822 241.682H289.685Z" fill="#1F343F"/>
<path d="M198.177 250.79H188.168C188.066 250.79 187.968 250.749 187.896 250.677C187.824 250.605 187.784 250.507 187.784 250.405C187.784 250.303 187.824 250.205 187.896 250.132C187.968 250.06 188.066 250.02 188.168 250.02H198.177C198.279 250.02 198.377 250.06 198.449 250.132C198.521 250.205 198.562 250.303 198.562 250.405C198.562 250.507 198.521 250.605 198.449 250.677C198.377 250.749 198.279 250.79 198.177 250.79Z" fill="#4DBA6C"/>
<path d="M289.685 241.682L286.182 250.405H235.716C235.062 248.234 234.223 245.27 233.338 241.682H289.685Z" fill="#4DBA6C"/>
<path d="M305.591 175.472C302.258 210.117 289.685 241.682 289.685 241.682H178.822C162.701 207.291 162.008 193.225 164.633 182.655C165.452 179.417 167.33 176.547 169.968 174.499C172.606 172.451 175.852 171.344 179.192 171.353H215.969C215.969 171.353 228.349 117.723 262.739 117.723C267.584 117.675 272.416 118.218 277.129 119.34C291.41 122.912 299.94 132.197 303.759 145.6C304.977 150.038 305.717 154.594 305.968 159.189C305.968 159.189 305.968 159.274 305.968 159.312C305.968 159.812 306.022 160.321 306.045 160.852C306.068 161.383 306.084 161.706 306.092 162.13C306.204 166.583 306.037 171.039 305.591 175.472Z" fill="#1F343F"/>
<path d="M285.151 242.067H178.822C178.749 242.066 178.678 242.045 178.616 242.005C178.555 241.966 178.506 241.91 178.476 241.844C162.77 208.369 161.438 193.941 164.264 182.563C164.361 182.167 164.474 181.777 164.602 181.392C164.618 181.344 164.644 181.3 164.677 181.262C164.711 181.224 164.751 181.192 164.797 181.17C164.842 181.147 164.891 181.134 164.942 181.13C164.992 181.127 165.043 181.134 165.091 181.15C165.139 181.166 165.184 181.191 165.222 181.225C165.26 181.258 165.291 181.299 165.314 181.344C165.336 181.389 165.35 181.439 165.353 181.489C165.356 181.54 165.35 181.591 165.334 181.639C165.211 182.003 165.103 182.373 165.01 182.747C162.231 193.934 163.555 208.153 179.068 241.258H285.158C285.266 241.259 285.368 241.303 285.443 241.38C285.518 241.456 285.56 241.559 285.559 241.666C285.558 241.774 285.514 241.876 285.438 241.951C285.361 242.026 285.258 242.068 285.151 242.067Z" fill="#4DBA6C"/>
<path d="M305.591 175.472C302.258 210.117 289.685 241.682 289.685 241.682H233.338C230.885 231.824 229.245 221.782 228.433 211.656C227.617 201.032 227.833 189.53 230.143 178.551C237.587 143.137 255.81 125.938 277.621 129.017C277.837 129.017 278.052 129.079 278.268 129.125L278.637 129.179C285.915 130.36 292.578 133.972 297.541 139.424C302.504 144.876 305.474 151.848 305.968 159.204C305.968 159.204 305.968 159.289 305.968 159.327C305.968 159.828 306.022 160.336 306.045 160.867C306.068 161.398 306.084 161.714 306.092 162.145C306.204 166.593 306.037 171.044 305.591 175.472Z" fill="#4DBA6C"/>
<path d="M288.069 242.044H235.532C235.43 242.044 235.332 242.003 235.259 241.931C235.187 241.859 235.147 241.761 235.147 241.659C235.147 241.557 235.187 241.459 235.259 241.387C235.332 241.314 235.43 241.274 235.532 241.274H288.076C288.127 241.274 288.177 241.285 288.223 241.305C288.27 241.324 288.312 241.353 288.347 241.389C288.383 241.425 288.411 241.468 288.429 241.515C288.448 241.562 288.458 241.612 288.457 241.663C288.457 241.713 288.446 241.763 288.427 241.81C288.407 241.856 288.378 241.898 288.342 241.934C288.306 241.969 288.263 241.997 288.216 242.016C288.169 242.035 288.119 242.044 288.069 242.044Z" fill="#1F343F"/>
<path d="M231.628 64.3623C231.628 64.3623 231.628 62.7224 232.16 62.5838C232.691 62.4453 232.568 63.0381 232.568 63.0381C232.568 63.0381 235.239 62.5607 235.94 64.2776C234.524 63.8919 233.028 63.9213 231.628 64.3623Z" fill="#4DBA6C"/>
<path d="M233.176 67.9191C233.78 67.9191 234.269 67.3159 234.269 66.5718C234.269 65.8278 233.78 65.2245 233.176 65.2245C232.572 65.2245 232.083 65.8278 232.083 66.5718C232.083 67.3159 232.572 67.9191 233.176 67.9191Z" fill="#4DBA6C"/>
<path d="M233.399 73.9473C233.297 73.9555 233.196 73.9228 233.118 73.8564C233.04 73.7899 232.992 73.6953 232.983 73.5932C232.975 73.4911 233.008 73.3899 233.074 73.312C233.141 73.234 233.235 73.1856 233.338 73.1774C234.277 72.9361 235.112 72.3956 235.716 71.6377C235.746 71.5928 235.785 71.5546 235.83 71.5256C235.876 71.4967 235.927 71.4775 235.98 71.4695C236.033 71.4614 236.087 71.4646 236.139 71.4789C236.191 71.4931 236.24 71.5181 236.281 71.5522C236.323 71.5862 236.357 71.6287 236.381 71.6768C236.405 71.7248 236.419 71.7774 236.422 71.8312C236.425 71.885 236.416 71.9387 236.397 71.9889C236.377 72.0391 236.347 72.0847 236.309 72.1227C235.598 73.0395 234.596 73.6881 233.468 73.9627H233.407L233.399 73.9473Z" fill="#4DBA6C"/>
<path d="M233.399 66.2639C233.607 66.2639 233.776 66.095 233.776 65.8866C233.776 65.6783 233.607 65.5094 233.399 65.5094C233.191 65.5094 233.022 65.6783 233.022 65.8866C233.022 66.095 233.191 66.2639 233.399 66.2639Z" fill="white"/>
<path d="M224.176 7.41398V23.7663C224.176 25.7313 224.956 27.6159 226.345 29.0061C227.733 30.3962 229.617 31.1782 231.582 31.1803H232.837V37.1469C232.829 37.4624 232.916 37.7731 233.086 38.0387C233.257 38.3044 233.503 38.5129 233.793 38.6372C234.083 38.7615 234.404 38.796 234.714 38.7362C235.024 38.6764 235.309 38.5251 235.532 38.3017L242.653 31.1803H261.608C263.574 31.1803 265.46 30.3992 266.85 29.0088C268.241 27.6184 269.022 25.7326 269.022 23.7663V7.41398C269.022 5.44767 268.241 3.56189 266.85 2.1715C265.46 0.781112 263.574 0 261.608 0H231.582C229.617 0.00204047 227.733 0.784056 226.345 2.17423C224.956 3.5644 224.176 5.449 224.176 7.41398Z" fill="#E9F3FF"/>
<path d="M259.976 5.96661H234.061C233.032 5.96661 232.198 6.79904 232.198 7.82588C232.198 8.85273 233.032 9.68515 234.061 9.68515H259.976C261.004 9.68515 261.839 8.85273 261.839 7.82588C261.839 6.79904 261.004 5.96661 259.976 5.96661Z" fill="#4DBA6C"/>
<path d="M259.976 13.5346H234.061C233.032 13.5346 232.198 14.367 232.198 15.3938C232.198 16.4207 233.032 17.2531 234.061 17.2531H259.976C261.004 17.2531 261.839 16.4207 261.839 15.3938C261.839 14.367 261.004 13.5346 259.976 13.5346Z" fill="#4DBA6C"/>
<path d="M246.118 21.1102H234.061C233.032 21.1102 232.198 21.9426 232.198 22.9695C232.198 23.9963 233.032 24.8287 234.061 24.8287H246.118C247.147 24.8287 247.981 23.9963 247.981 22.9695C247.981 21.9426 247.147 21.1102 246.118 21.1102Z" fill="#4DBA6C"/>
<path d="M160.022 28.5858V44.9381C160.022 46.9031 160.802 48.7877 162.19 50.1779C163.579 51.568 165.463 52.3501 167.428 52.3521H168.683V58.3572C168.683 58.6694 168.775 58.9747 168.949 59.2344C169.122 59.494 169.368 59.6964 169.657 59.8159C169.945 59.9355 170.263 59.9667 170.569 59.9058C170.875 59.8448 171.157 59.6944 171.377 59.4735L178.499 52.3521H197.453C199.42 52.3521 201.305 51.571 202.696 50.1806C204.086 48.7902 204.867 46.9044 204.867 44.9381V28.5858C204.867 26.6195 204.086 24.7337 202.696 23.3433C201.305 21.9529 199.42 21.1718 197.453 21.1718H167.428C165.463 21.1739 163.579 21.9559 162.19 23.346C160.802 24.7362 160.022 26.6208 160.022 28.5858Z" fill="#1F343F"/>
<path d="M194.635 39.9646C196.477 39.9646 197.969 38.4721 197.969 36.6311C197.969 34.79 196.477 33.2975 194.635 33.2975C192.794 33.2975 191.302 34.79 191.302 36.6311C191.302 38.4721 192.794 39.9646 194.635 39.9646Z" fill="white"/>
<path d="M182.441 39.9646C184.282 39.9646 185.774 38.4721 185.774 36.6311C185.774 34.79 184.282 33.2975 182.441 33.2975C180.599 33.2975 179.107 34.79 179.107 36.6311C179.107 38.4721 180.599 39.9646 182.441 39.9646Z" fill="white"/>
<path d="M170.253 39.9646C172.094 39.9646 173.587 38.4721 173.587 36.6311C173.587 34.79 172.094 33.2975 170.253 33.2975C168.412 33.2975 166.92 34.79 166.92 36.6311C166.92 38.4721 168.412 39.9646 170.253 39.9646Z" fill="white"/>
<path d="M69.845 63.1382C72.5578 63.1382 74.7569 60.9391 74.7569 58.2263C74.7569 55.5136 72.5578 53.3145 69.845 53.3145C67.1323 53.3145 64.9332 55.5136 64.9332 58.2263C64.9332 60.9391 67.1323 63.1382 69.845 63.1382Z" fill="#1F343F"/>
<path d="M73.7946 41.7662C74.9639 41.7662 75.9118 40.8183 75.9118 39.649C75.9118 38.4797 74.9639 37.5318 73.7946 37.5318C72.6253 37.5318 71.6774 38.4797 71.6774 39.649C71.6774 40.8183 72.6253 41.7662 73.7946 41.7662Z" fill="#E9F3FF"/>
<path d="M139.427 45.0382C141.766 45.0382 143.662 43.1424 143.662 40.8038C143.662 38.4652 141.766 36.5695 139.427 36.5695C137.089 36.5695 135.193 38.4652 135.193 40.8038C135.193 43.1424 137.089 45.0382 139.427 45.0382Z" fill="#E9F3FF"/>
<path d="M209.871 80.2604C212.708 80.2604 215.007 77.9613 215.007 75.1252C215.007 72.2892 212.708 69.9901 209.871 69.9901C207.035 69.9901 204.736 72.2892 204.736 75.1252C204.736 77.9613 207.035 80.2604 209.871 80.2604Z" fill="#E9F3FF"/>
<path d="M313.806 176.234C315.077 176.234 316.108 175.203 316.108 173.932C316.108 172.661 315.077 171.63 313.806 171.63C312.534 171.63 311.504 172.661 311.504 173.932C311.504 175.203 312.534 176.234 313.806 176.234Z" fill="#1F343F"/>
<path d="M280.093 89.8916C281.742 89.8916 283.08 88.5542 283.08 86.9044C283.08 85.2547 281.742 83.9173 280.093 83.9173C278.443 83.9173 277.105 85.2547 277.105 86.9044C277.105 88.5542 278.443 89.8916 280.093 89.8916Z" fill="#1F343F"/>
<path d="M325.277 167.45C326.927 167.45 328.264 166.112 328.264 164.463C328.264 162.813 326.927 161.475 325.277 161.475C323.627 161.475 322.29 162.813 322.29 164.463C322.29 166.112 323.627 167.45 325.277 167.45Z" fill="#E9F3FF"/>
<path d="M294.366 102.587C295.11 102.587 295.714 101.984 295.714 101.24C295.714 100.496 295.11 99.8924 294.366 99.8924C293.622 99.8924 293.019 100.496 293.019 101.24C293.019 101.984 293.622 102.587 294.366 102.587Z" fill="#E9F3FF"/>
<path d="M59.0667 42.205C58.9646 42.205 58.8667 42.1644 58.7945 42.0923C58.7223 42.0201 58.6817 41.9222 58.6817 41.8201V38.5789C58.6817 38.4768 58.7223 38.3788 58.7945 38.3067C58.8667 38.2345 58.9646 38.1939 59.0667 38.1939C59.1688 38.1939 59.2667 38.2345 59.3389 38.3067C59.4111 38.3788 59.4516 38.4768 59.4516 38.5789V41.8201C59.4516 41.9222 59.4111 42.0201 59.3389 42.0923C59.2667 42.1644 59.1688 42.205 59.0667 42.205Z" fill="#1F343F"/>
<path d="M64.5251 44.4146H61.2762C61.1741 44.4146 61.0762 44.374 61.004 44.3018C60.9319 44.2296 60.8913 44.1317 60.8913 44.0296C60.8913 43.9275 60.9319 43.8296 61.004 43.7574C61.0762 43.6852 61.1741 43.6447 61.2762 43.6447H64.5174C64.568 43.6442 64.6182 43.6536 64.665 43.6725C64.7119 43.6914 64.7547 43.7193 64.7908 43.7547C64.8269 43.7901 64.8557 43.8322 64.8755 43.8787C64.8953 43.9253 64.9057 43.9752 64.9062 44.0258C64.9067 44.0763 64.8973 44.1265 64.8784 44.1734C64.8595 44.2203 64.8316 44.263 64.7962 44.2991C64.7608 44.3352 64.7187 44.364 64.6722 44.3838C64.6257 44.4036 64.5757 44.4141 64.5251 44.4146Z" fill="#1F343F"/>
<path d="M59.0667 49.8653C58.9646 49.8653 58.8667 49.8248 58.7945 49.7526C58.7223 49.6804 58.6817 49.5825 58.6817 49.4804V46.2392C58.6817 46.1371 58.7223 46.0392 58.7945 45.967C58.8667 45.8948 58.9646 45.8542 59.0667 45.8542C59.1688 45.8542 59.2667 45.8948 59.3389 45.967C59.4111 46.0392 59.4516 46.1371 59.4516 46.2392V49.465C59.4537 49.5168 59.4453 49.5685 59.4269 49.617C59.4084 49.6655 59.3804 49.7098 59.3445 49.7472C59.3085 49.7846 59.2654 49.8143 59.2176 49.8346C59.1699 49.8549 59.1185 49.8654 59.0667 49.8653Z" fill="#1F343F"/>
<path d="M56.8648 44.4146H53.6159C53.5138 44.4146 53.4159 44.374 53.3437 44.3018C53.2715 44.2296 53.231 44.1317 53.231 44.0296C53.231 43.9275 53.2715 43.8296 53.3437 43.7574C53.4159 43.6852 53.5138 43.6447 53.6159 43.6447H56.8571C56.9077 43.6442 56.9578 43.6536 57.0047 43.6725C57.0516 43.6914 57.0943 43.7193 57.1304 43.7547C57.1665 43.7901 57.1953 43.8322 57.2151 43.8787C57.2349 43.9253 57.2454 43.9752 57.2459 44.0258C57.2464 44.0763 57.237 44.1265 57.2181 44.1734C57.1992 44.2203 57.1713 44.263 57.1359 44.2991C57.1005 44.3352 57.0583 44.364 57.0118 44.3838C56.9653 44.4036 56.9154 44.4141 56.8648 44.4146Z" fill="#1F343F"/>
<path d="M298.762 89.9378C298.66 89.9378 298.562 89.8972 298.49 89.825C298.418 89.7528 298.377 89.6549 298.377 89.5528V86.3116C298.377 86.2095 298.418 86.1116 298.49 86.0394C298.562 85.9672 298.66 85.9267 298.762 85.9267C298.864 85.9267 298.962 85.9672 299.034 86.0394C299.107 86.1116 299.147 86.2095 299.147 86.3116V89.5528C299.147 89.6549 299.107 89.7528 299.034 89.825C298.962 89.8972 298.864 89.9378 298.762 89.9378Z" fill="#1F343F"/>
<path d="M304.213 92.1473H300.972C300.87 92.1473 300.772 92.1068 300.7 92.0346C300.627 91.9624 300.587 91.8645 300.587 91.7624C300.587 91.6603 300.627 91.5624 300.7 91.4902C300.772 91.418 300.87 91.3774 300.972 91.3774H304.213C304.315 91.3774 304.413 91.418 304.485 91.4902C304.557 91.5624 304.598 91.6603 304.598 91.7624C304.598 91.8645 304.557 91.9624 304.485 92.0346C304.413 92.1068 304.315 92.1473 304.213 92.1473Z" fill="#1F343F"/>
<path d="M298.762 97.5981C298.66 97.5981 298.562 97.5575 298.49 97.4854C298.418 97.4132 298.377 97.3153 298.377 97.2132V93.9719C298.377 93.8699 298.418 93.7719 298.49 93.6998C298.562 93.6276 298.66 93.587 298.762 93.587C298.864 93.587 298.962 93.6276 299.034 93.6998C299.107 93.7719 299.147 93.8699 299.147 93.9719V97.1978C299.149 97.2496 299.141 97.3013 299.122 97.3498C299.104 97.3983 299.076 97.4426 299.04 97.48C299.004 97.5174 298.961 97.5471 298.913 97.5674C298.865 97.5877 298.814 97.5981 298.762 97.5981Z" fill="#1F343F"/>
<path d="M296.553 92.1473H293.273C293.171 92.1473 293.073 92.1068 293.001 92.0346C292.929 91.9624 292.888 91.8645 292.888 91.7624C292.888 91.6603 292.929 91.5624 293.001 91.4902C293.073 91.418 293.171 91.3774 293.273 91.3774H296.514C296.616 91.3723 296.716 91.408 296.792 91.4766C296.868 91.5452 296.913 91.641 296.918 91.7431C296.923 91.8452 296.888 91.9452 296.819 92.021C296.751 92.0968 296.655 92.1422 296.553 92.1473Z" fill="#1F343F"/>
<path d="M136.64 84.9797C136.538 84.9797 136.44 84.9392 136.368 84.867C136.296 84.7948 136.255 84.6969 136.255 84.5948V81.3536C136.255 81.2515 136.296 81.1536 136.368 81.0814C136.44 81.0092 136.538 80.9686 136.64 80.9686C136.742 80.9686 136.84 81.0092 136.912 81.0814C136.985 81.1536 137.025 81.2515 137.025 81.3536V84.5948C137.025 84.6969 136.985 84.7948 136.912 84.867C136.84 84.9392 136.742 84.9797 136.64 84.9797Z" fill="#1F343F"/>
<path d="M142.091 87.1893H138.85C138.748 87.1893 138.65 87.1487 138.578 87.0765C138.505 87.0043 138.465 86.9064 138.465 86.8043C138.465 86.7023 138.505 86.6043 138.578 86.5322C138.65 86.46 138.748 86.4194 138.85 86.4194H142.091C142.193 86.4194 142.291 86.46 142.363 86.5322C142.435 86.6043 142.476 86.7023 142.476 86.8043C142.476 86.9064 142.435 87.0043 142.363 87.0765C142.291 87.1487 142.193 87.1893 142.091 87.1893Z" fill="#1F343F"/>
<path d="M136.64 92.6401C136.538 92.6401 136.44 92.5995 136.368 92.5273C136.296 92.4551 136.255 92.3572 136.255 92.2551V89.0139C136.255 88.9118 136.296 88.8139 136.368 88.7417C136.44 88.6695 136.538 88.629 136.64 88.629C136.742 88.629 136.84 88.6695 136.912 88.7417C136.985 88.8139 137.025 88.9118 137.025 89.0139V92.2551C137.025 92.3572 136.985 92.4551 136.912 92.5273C136.84 92.5995 136.742 92.6401 136.64 92.6401Z" fill="#1F343F"/>
<path d="M134.431 87.1893H131.189C131.087 87.1893 130.989 87.1487 130.917 87.0765C130.845 87.0043 130.804 86.9064 130.804 86.8043C130.804 86.7023 130.845 86.6043 130.917 86.5322C130.989 86.46 131.087 86.4194 131.189 86.4194H134.431C134.533 86.4194 134.631 86.46 134.703 86.5322C134.775 86.6043 134.815 86.7023 134.815 86.8043C134.815 86.9064 134.775 87.0043 134.703 87.0765C134.631 87.1487 134.533 87.1893 134.431 87.1893Z" fill="#1F343F"/>
</svg>
