<svg width="268" height="48" viewBox="0 0 268 48" fill="none" xmlns="http://www.w3.org/2000/svg">
<g clip-path="url(#clip0_7_13)">
<path d="M37.5 0H12.5C5.6 0 0 5.32035 0 11.8813V26.1485V28.5343C0 35.0952 5.6 40.4156 12.5 40.4156H16.25C16.925 40.4156 17.825 40.845 18.25 41.3699L22 46.1177C23.65 48.2172 26.35 48.2172 28 46.1177L31.75 41.3699C32.225 40.7735 32.975 40.4156 33.75 40.4156H37.5C44.4 40.4156 50 35.0952 50 28.5343V11.8813C50 5.32035 44.4 0 37.5 0ZM15 23.8581C13.6 23.8581 12.5 22.7845 12.5 21.4723C12.5 20.1601 13.625 19.0865 15 19.0865C16.375 19.0865 17.5 20.1601 17.5 21.4723C17.5 22.7845 16.4 23.8581 15 23.8581ZM25 23.8581C23.6 23.8581 22.5 22.7845 22.5 21.4723C22.5 20.1601 23.625 19.0865 25 19.0865C26.375 19.0865 27.5 20.1601 27.5 21.4723C27.5 22.7845 26.4 23.8581 25 23.8581ZM35 23.8581C33.6 23.8581 32.5 22.7845 32.5 21.4723C32.5 20.1601 33.625 19.0865 35 19.0865C36.375 19.0865 37.5 20.1601 37.5 21.4723C37.5 22.7845 36.4 23.8581 35 23.8581Z" fill="#42DA3F"/>
<path d="M96.41 32.825C94.82 34.745 92.945 36.215 90.785 37.235C88.625 38.225 86.21 38.72 83.54 38.72C81.14 38.72 78.905 38.285 76.835 37.415C74.795 36.545 73.025 35.36 71.525 33.86C70.025 32.36 68.84 30.59 67.97 28.55C67.1 26.48 66.665 24.26 66.665 21.89C66.665 19.52 67.1 17.315 67.97 15.275C68.84 13.205 70.025 11.42 71.525 9.92C73.025 8.42 74.795 7.235 76.835 6.365C78.905 5.495 81.14 5.06 83.54 5.06C86.12 5.06 88.385 5.51 90.335 6.41C92.315 7.31 94.07 8.615 95.6 10.325L91.325 14.465C90.365 13.355 89.255 12.47 87.995 11.81C86.765 11.15 85.295 10.82 83.585 10.82C82.085 10.82 80.675 11.09 79.355 11.63C78.035 12.14 76.88 12.875 75.89 13.835C74.93 14.795 74.165 15.965 73.595 17.345C73.025 18.695 72.74 20.21 72.74 21.89C72.74 23.57 73.025 25.1 73.595 26.48C74.165 27.83 74.93 28.985 75.89 29.945C76.88 30.905 78.035 31.655 79.355 32.195C80.675 32.705 82.085 32.96 83.585 32.96C85.385 32.96 86.975 32.6 88.355 31.88C89.765 31.13 91.01 30.08 92.09 28.73L96.41 32.825ZM110.128 15.23C111.838 15.23 113.398 15.53 114.808 16.13C116.248 16.7 117.478 17.51 118.498 18.56C119.548 19.58 120.358 20.81 120.928 22.25C121.528 23.69 121.828 25.265 121.828 26.975C121.828 28.685 121.528 30.26 120.928 31.7C120.358 33.14 119.548 34.385 118.498 35.435C117.478 36.455 116.248 37.265 114.808 37.865C113.398 38.435 111.838 38.72 110.128 38.72C108.418 38.72 106.843 38.435 105.403 37.865C103.993 37.265 102.763 36.455 101.713 35.435C100.693 34.385 99.883 33.14 99.283 31.7C98.713 30.26 98.428 28.685 98.428 26.975C98.428 25.265 98.713 23.69 99.283 22.25C99.883 20.81 100.693 19.58 101.713 18.56C102.763 17.51 103.993 16.7 105.403 16.13C106.843 15.53 108.418 15.23 110.128 15.23ZM110.128 33.275C110.878 33.275 111.598 33.14 112.288 32.87C113.008 32.57 113.638 32.15 114.178 31.61C114.718 31.07 115.138 30.41 115.438 29.63C115.768 28.85 115.933 27.965 115.933 26.975C115.933 25.985 115.768 25.1 115.438 24.32C115.138 23.54 114.718 22.88 114.178 22.34C113.638 21.8 113.008 21.395 112.288 21.125C111.598 20.825 110.878 20.675 110.128 20.675C109.348 20.675 108.613 20.825 107.923 21.125C107.233 21.395 106.618 21.8 106.078 22.34C105.538 22.88 105.103 23.54 104.773 24.32C104.473 25.1 104.323 25.985 104.323 26.975C104.323 27.965 104.473 28.85 104.773 29.63C105.103 30.41 105.538 31.07 106.078 31.61C106.618 32.15 107.233 32.57 107.923 32.87C108.613 33.14 109.348 33.275 110.128 33.275ZM130.711 18.83H131.071C131.761 17.72 132.691 16.85 133.861 16.22C135.031 15.56 136.366 15.23 137.866 15.23C139.246 15.23 140.461 15.455 141.511 15.905C142.561 16.355 143.416 17 144.076 17.84C144.766 18.65 145.276 19.64 145.606 20.81C145.966 21.95 146.146 23.225 146.146 24.635V38H140.251V25.355C140.251 23.765 139.891 22.595 139.171 21.845C138.481 21.065 137.461 20.675 136.111 20.675C135.301 20.675 134.581 20.855 133.951 21.215C133.351 21.545 132.826 22.01 132.376 22.61C131.956 23.18 131.626 23.87 131.386 24.68C131.176 25.46 131.071 26.3 131.071 27.2V38H125.176V15.95H130.711V18.83ZM147.797 15.95H154.502L159.992 29.99H160.307L165.842 15.95H172.502L163.007 38H157.202L147.797 15.95ZM195.407 32.69C194.387 34.49 193.007 35.945 191.267 37.055C189.557 38.165 187.457 38.72 184.967 38.72C183.287 38.72 181.727 38.435 180.287 37.865C178.877 37.265 177.647 36.44 176.597 35.39C175.547 34.34 174.722 33.11 174.122 31.7C173.552 30.26 173.267 28.685 173.267 26.975C173.267 25.385 173.552 23.885 174.122 22.475C174.692 21.035 175.487 19.79 176.507 18.74C177.527 17.66 178.727 16.805 180.107 16.175C181.517 15.545 183.062 15.23 184.742 15.23C186.512 15.23 188.087 15.53 189.467 16.13C190.847 16.7 192.002 17.51 192.932 18.56C193.862 19.58 194.567 20.795 195.047 22.205C195.527 23.615 195.767 25.145 195.767 26.795C195.767 27.005 195.767 27.185 195.767 27.335C195.737 27.515 195.722 27.68 195.722 27.83C195.692 27.98 195.677 28.145 195.677 28.325H179.072C179.192 29.225 179.432 30.005 179.792 30.665C180.182 31.295 180.647 31.835 181.187 32.285C181.757 32.705 182.372 33.02 183.032 33.23C183.692 33.41 184.367 33.5 185.057 33.5C186.407 33.5 187.517 33.2 188.387 32.6C189.287 31.97 189.992 31.19 190.502 30.26L195.407 32.69ZM190.052 24.14C190.022 23.75 189.887 23.315 189.647 22.835C189.437 22.355 189.107 21.905 188.657 21.485C188.237 21.065 187.697 20.72 187.037 20.45C186.407 20.18 185.642 20.045 184.742 20.045C183.482 20.045 182.372 20.405 181.412 21.125C180.452 21.845 179.777 22.85 179.387 24.14H190.052ZM199.532 15.95H205.067V19.01H205.427C205.697 18.47 206.057 17.975 206.507 17.525C206.957 17.075 207.452 16.685 207.992 16.355C208.562 16.025 209.162 15.77 209.792 15.59C210.452 15.41 211.097 15.32 211.727 15.32C212.507 15.32 213.167 15.395 213.707 15.545C214.277 15.695 214.757 15.89 215.147 16.13L213.572 21.485C213.212 21.305 212.807 21.17 212.357 21.08C211.937 20.96 211.412 20.9 210.782 20.9C209.972 20.9 209.237 21.065 208.577 21.395C207.917 21.695 207.347 22.13 206.867 22.7C206.417 23.27 206.057 23.945 205.787 24.725C205.547 25.475 205.427 26.3 205.427 27.2V38H199.532V15.95ZM225.708 38.72C224.268 38.72 222.978 38.54 221.838 38.18C220.728 37.82 219.753 37.355 218.913 36.785C218.103 36.185 217.413 35.51 216.843 34.76C216.273 33.98 215.838 33.2 215.538 32.42L220.803 30.17C221.313 31.31 221.988 32.165 222.828 32.735C223.698 33.275 224.658 33.545 225.708 33.545C226.788 33.545 227.643 33.35 228.273 32.96C228.903 32.57 229.218 32.105 229.218 31.565C229.218 30.965 228.948 30.485 228.408 30.125C227.898 29.735 226.998 29.39 225.708 29.09L222.603 28.415C221.913 28.265 221.193 28.025 220.443 27.695C219.723 27.365 219.063 26.945 218.463 26.435C217.863 25.925 217.368 25.31 216.978 24.59C216.588 23.87 216.393 23.03 216.393 22.07C216.393 20.99 216.618 20.03 217.068 19.19C217.548 18.35 218.193 17.645 219.003 17.075C219.813 16.475 220.758 16.025 221.838 15.725C222.948 15.395 224.133 15.23 225.393 15.23C227.493 15.23 229.368 15.65 231.018 16.49C232.668 17.3 233.883 18.605 234.663 20.405L229.578 22.475C229.158 21.605 228.543 20.975 227.733 20.585C226.923 20.195 226.113 20 225.303 20C224.463 20 223.728 20.18 223.098 20.54C222.468 20.87 222.153 21.305 222.153 21.845C222.153 22.355 222.408 22.76 222.918 23.06C223.458 23.36 224.178 23.63 225.078 23.87L228.453 24.68C230.703 25.22 232.368 26.09 233.448 27.29C234.558 28.46 235.113 29.855 235.113 31.475C235.113 32.435 234.888 33.35 234.438 34.22C233.988 35.09 233.343 35.87 232.503 36.56C231.693 37.22 230.703 37.745 229.533 38.135C228.393 38.525 227.118 38.72 225.708 38.72ZM252.541 35.66H252.181C251.491 36.5 250.651 37.22 249.661 37.82C248.701 38.42 247.456 38.72 245.926 38.72C244.786 38.72 243.706 38.525 242.686 38.135C241.696 37.775 240.826 37.265 240.076 36.605C239.326 35.945 238.741 35.15 238.321 34.22C237.901 33.29 237.691 32.27 237.691 31.16C237.691 30.02 237.916 29 238.366 28.1C238.816 27.17 239.446 26.375 240.256 25.715C241.066 25.055 242.011 24.56 243.091 24.23C244.201 23.87 245.401 23.69 246.691 23.69C248.131 23.69 249.316 23.81 250.246 24.05C251.176 24.26 251.941 24.485 252.541 24.725V24.05C252.541 22.88 252.076 21.92 251.146 21.17C250.216 20.39 249.061 20 247.681 20C245.641 20 243.916 20.855 242.506 22.565L238.231 19.64C240.571 16.7 243.766 15.23 247.816 15.23C251.236 15.23 253.846 16.04 255.646 17.66C257.446 19.25 258.346 21.62 258.346 24.77V38H252.541V35.66ZM252.541 29.045C251.851 28.715 251.131 28.46 250.381 28.28C249.661 28.07 248.866 27.965 247.996 27.965C246.586 27.965 245.491 28.28 244.711 28.91C243.961 29.51 243.586 30.26 243.586 31.16C243.586 32.06 243.946 32.78 244.666 33.32C245.416 33.86 246.271 34.13 247.231 34.13C248.011 34.13 248.731 33.995 249.391 33.725C250.051 33.425 250.606 33.05 251.056 32.6C251.536 32.12 251.896 31.58 252.136 30.98C252.406 30.35 252.541 29.705 252.541 29.045Z" fill="white"/>
</g>
<defs>
<clipPath id="clip0_7_13">
<rect width="268" height="47.6923" fill="white"/>
</clipPath>
</defs>
</svg>
