<svg width="26" height="25" viewBox="0 0 26 25" fill="none" xmlns="http://www.w3.org/2000/svg">
<g clip-path="url(#clip0_13_837)">
<path fill-rule="evenodd" clip-rule="evenodd" d="M7.56704 3.70312C6.41183 4.37 5.39926 5.25787 4.58717 6.31606C3.77509 7.37425 3.17939 8.58203 2.83406 9.87045C2.13667 12.4725 2.5015 15.245 3.84829 17.5781C5.19509 19.9112 7.41354 21.6137 10.0156 22.3111C12.6177 23.0084 15.3902 22.6437 17.7233 21.2969C17.9914 21.1541 18.3045 21.1209 18.5966 21.2045C18.8886 21.2881 19.1367 21.4819 19.2888 21.745C19.4408 22.008 19.4847 22.3197 19.4113 22.6145C19.3378 22.9092 19.1528 23.1641 18.8952 23.325C16.5319 24.6887 13.7873 25.2419 11.0802 24.8998C8.3732 24.5577 5.85245 23.3392 3.90272 21.4305C1.953 19.5217 0.681385 17.0273 0.281991 14.3281C-0.117403 11.6289 0.377355 8.87322 1.69075 6.48155C3.00414 4.08989 5.06403 2.19365 7.556 1.08229C10.048 -0.0290763 12.8351 -0.294537 15.4921 0.326427C18.1491 0.947391 20.5299 2.42067 22.2711 4.52139C24.0124 6.62212 25.0185 9.23491 25.1358 11.9609C25.142 12.0102 25.1452 12.0597 25.1452 12.1094V12.2719C25.1463 12.3708 25.1463 12.4698 25.1452 12.5687V14.4531C25.1458 15.3839 24.8441 16.2895 24.2855 17.0341C23.727 17.7786 22.9419 18.3217 22.0481 18.5816C21.1544 18.8416 20.2005 18.8042 19.3299 18.4753C18.4592 18.1464 17.7188 17.5437 17.2202 16.7578C16.2285 17.8233 14.896 18.5092 13.4525 18.6973C12.0091 18.8853 10.5454 18.5636 9.31376 17.7878C8.08218 17.0119 7.16003 15.8305 6.7064 14.4474C6.25279 13.0643 6.29617 11.5662 6.82904 10.2116C7.36192 8.85706 8.35087 7.73098 9.62528 7.02766C10.8997 6.32434 12.3796 6.08789 13.8097 6.35912C15.2399 6.63034 16.5305 7.39223 17.4589 8.51331C18.3872 9.63441 18.8953 11.0444 18.8952 12.5V14.4531C18.8952 14.9711 19.101 15.4679 19.4672 15.8342C19.8335 16.2005 20.3303 16.4062 20.8483 16.4062C21.3663 16.4062 21.8631 16.2005 22.2294 15.8342C22.5956 15.4679 22.8014 14.9711 22.8014 14.4531V12.2922C22.7655 10.5271 22.27 8.80184 21.3639 7.28662C20.4578 5.77141 19.1725 4.51855 17.6345 3.65161C16.0966 2.78469 14.3592 2.33362 12.5937 2.34294C10.8283 2.35223 9.09578 2.82159 7.56704 3.70469V3.70312ZM16.5514 12.5C16.5514 11.464 16.1399 10.4704 15.4073 9.73786C14.6747 9.0053 13.6812 8.59375 12.6452 8.59375C11.6092 8.59375 10.6156 9.0053 9.88303 9.73786C9.15047 10.4704 8.73892 11.464 8.73892 12.5C8.73892 13.536 9.15047 14.5296 9.88303 15.2621C10.6156 15.9947 11.6092 16.4062 12.6452 16.4062C13.6812 16.4062 14.6747 15.9947 15.4073 15.2621C16.1399 14.5296 16.5514 13.536 16.5514 12.5Z" fill="white"/>
</g>
<defs>
<clipPath id="clip0_13_837">
<rect width="25" height="25" fill="white" transform="translate(0.145142)"/>
</clipPath>
</defs>
</svg>
