<svg width="9" height="32" viewBox="0 0 9 32" fill="none" xmlns="http://www.w3.org/2000/svg">
<path d="M4.14514 0C1.94514 0 0.145142 1.8 0.145142 4C0.145142 6.2 1.94514 8 4.14514 8C6.34514 8 8.14514 6.2 8.14514 4C8.14514 1.8 6.34514 0 4.14514 0Z" fill="#42DA3F"/>
<path d="M4.14514 12C1.94514 12 0.145142 13.8 0.145142 16C0.145142 18.2 1.94514 20 4.14514 20C6.34514 20 8.14514 18.2 8.14514 16C8.14514 13.8 6.34514 12 4.14514 12Z" fill="#42DA3F"/>
<path d="M4.14514 24C1.94514 24 0.145142 25.8 0.145142 28C0.145142 30.2 1.94514 32 4.14514 32C6.34514 32 8.14514 30.2 8.14514 28C8.14514 25.8 6.34514 24 4.14514 24Z" fill="#42DA3F"/>
</svg>
