<svg width="26" height="25" viewBox="0 0 26 25" fill="none" xmlns="http://www.w3.org/2000/svg">
<g clip-path="url(#clip0_13_838)">
<path fill-rule="evenodd" clip-rule="evenodd" d="M2.63215 4.23821L3.8652 11.3282H11.4733C12.1205 11.3282 12.6452 11.8528 12.6452 12.5001C12.6452 13.1473 12.1205 13.6719 11.4733 13.6719H3.8652L2.63215 20.7619L21.9098 12.5001L2.63215 4.23821ZM1.69007 12.5001L0.244641 4.18886C0.12779 3.51697 0.345199 2.83024 0.827432 2.348C1.43335 1.7421 2.34712 1.56611 3.13473 1.90366L24.0759 10.8784C24.7245 11.1565 25.1451 11.7943 25.1451 12.5001C25.1451 13.2058 24.7245 13.8437 24.0759 14.1217L3.13473 23.0964C2.34712 23.4341 1.43335 23.258 0.827432 22.6522C0.345199 22.1698 0.12779 21.4831 0.244641 20.8113L1.69007 12.5001Z" fill="white"/>
</g>
<defs>
<clipPath id="clip0_13_838">
<rect width="25" height="25" fill="white" transform="translate(0.145142)"/>
</clipPath>
</defs>
</svg>
