<svg width="45" height="46" viewBox="0 0 45 46" fill="none" xmlns="http://www.w3.org/2000/svg">
<circle cx="22.5" cy="22.8462" r="22.5" fill="#42DA3F"/>
<path d="M22.4882 32.3226C16.7069 32.3226 12 27.6157 12 21.8344C12 16.0531 16.7069 11.3462 22.4882 11.3462C28.2695 11.3462 32.9764 16.0531 32.9764 21.8344C32.9764 27.6157 28.2695 32.3226 22.4882 32.3226ZM22.4882 12.881C17.546 12.881 13.5349 16.9024 13.5349 21.8344C13.5349 26.7664 17.546 30.7877 22.4882 30.7877C27.4305 30.7877 31.4416 26.7664 31.4416 21.8344C31.4416 16.9024 27.4305 12.881 22.4882 12.881Z" fill="#0F172A" stroke="black"/>
<path d="M33.2327 33.3461C33.0383 33.3461 32.8438 33.2745 32.6904 33.121L30.6439 31.0746C30.3471 30.7778 30.3471 30.2867 30.6439 29.9899C30.9406 29.6932 31.4318 29.6932 31.7285 29.9899L33.775 32.0364C34.0717 32.3331 34.0717 32.8243 33.775 33.121C33.6215 33.2745 33.4271 33.3461 33.2327 33.3461Z" fill="#0F172A" stroke="black"/>
</svg>
