<svg width="33" height="34" viewBox="0 0 33 34" fill="none" xmlns="http://www.w3.org/2000/svg">
<path d="M15.4489 30.606C7.56437 30.606 1.14514 24.1868 1.14514 16.3023C1.14514 8.41783 7.56437 1.9986 15.4489 1.9986C23.3333 1.9986 29.7526 8.41783 29.7526 16.3023C29.7526 24.1868 23.3333 30.606 15.4489 30.606ZM15.4489 4.09182C8.70867 4.09182 3.23837 9.57608 3.23837 16.3023C3.23837 23.0286 8.70867 28.5128 15.4489 28.5128C22.189 28.5128 27.6593 23.0286 27.6593 16.3023C27.6593 9.57608 22.189 4.09182 15.4489 4.09182Z" fill="#42DA3F" stroke="#42DA3F" stroke-width="2"/>
<path d="M30.102 32.0014C29.8369 32.0014 29.5718 31.9037 29.3624 31.6944L26.5715 28.9034C26.1668 28.4987 26.1668 27.8289 26.5715 27.4242C26.9762 27.0195 27.646 27.0195 28.0507 27.4242L30.8416 30.2152C31.2463 30.6199 31.2463 31.2897 30.8416 31.6944C30.6323 31.9037 30.3672 32.0014 30.102 32.0014Z" fill="#42DA3F" stroke="#42DA3F" stroke-width="2"/>
</svg>
