<svg width="25" height="25" viewBox="0 0 25 25" fill="none" xmlns="http://www.w3.org/2000/svg">
<g clip-path="url(#clip0_13_833)">
<path fill-rule="evenodd" clip-rule="evenodd" d="M2.34375 12.5C2.34375 9.80639 3.41378 7.22311 5.31845 5.31845C7.22311 3.41378 9.80639 2.34375 12.5 2.34375C15.1936 2.34375 17.7769 3.41378 19.6816 5.31845C21.5863 7.22311 22.6562 9.80639 22.6562 12.5C22.6562 15.1936 21.5863 17.7769 19.6816 19.6816C17.7769 21.5863 15.1936 22.6562 12.5 22.6562C9.80639 22.6562 7.22311 21.5863 5.31845 19.6816C3.41378 17.7769 2.34375 15.1936 2.34375 12.5ZM12.5 0C9.1848 0 6.00537 1.31696 3.66117 3.66117C1.31696 6.00537 0 9.1848 0 12.5C0 15.8152 1.31696 18.9947 3.66117 21.3389C6.00537 23.683 9.1848 25 12.5 25C15.8152 25 18.9947 23.683 21.3389 21.3389C23.683 18.9947 25 15.8152 25 12.5C25 9.1848 23.683 6.00537 21.3389 3.66117C18.9947 1.31696 15.8152 0 12.5 0ZM7.8125 12.5C8.22691 12.5 8.62433 12.3354 8.91736 12.0424C9.21037 11.7493 9.375 11.3519 9.375 10.9375C9.375 10.5231 9.21037 10.1257 8.91736 9.83264C8.62433 9.53963 8.22691 9.375 7.8125 9.375C7.39809 9.375 7.00067 9.53963 6.70764 9.83264C6.41463 10.1257 6.25 10.5231 6.25 10.9375C6.25 11.3519 6.41463 11.7493 6.70764 12.0424C7.00067 12.3354 7.39809 12.5 7.8125 12.5ZM18.75 10.9375C18.75 11.3519 18.5853 11.7493 18.2923 12.0424C17.9994 12.3354 17.6019 12.5 17.1875 12.5C16.7731 12.5 16.3756 12.3354 16.0827 12.0424C15.7897 11.7493 15.625 11.3519 15.625 10.9375C15.625 10.5231 15.7897 10.1257 16.0827 9.83264C16.3756 9.53963 16.7731 9.375 17.1875 9.375C17.6019 9.375 17.9994 9.53963 18.2923 9.83264C18.5853 10.1257 18.75 10.5231 18.75 10.9375ZM8.3125 15.0562C8.56459 14.8797 8.876 14.8095 9.17947 14.8606C9.48294 14.9118 9.75409 15.0803 9.93437 15.3297L9.94531 15.3438C10.106 15.528 10.2898 15.6908 10.4922 15.8281C10.9047 16.1063 11.5594 16.4062 12.5 16.4062C13.4406 16.4062 14.0938 16.1062 14.5078 15.8266C14.7102 15.6892 14.894 15.5265 15.0547 15.3422L15.0656 15.3297C15.2459 15.0765 15.5194 14.9053 15.8258 14.8537C16.1323 14.8021 16.4469 14.8744 16.7 15.0547C16.9531 15.235 17.1244 15.5084 17.1759 15.8148C17.2275 16.1214 17.1553 16.4359 16.975 16.6891L16.0156 16.0156C16.975 16.6875 16.975 16.6891 16.9734 16.6891V16.6906L16.9719 16.6938L16.9688 16.6984L16.9609 16.7094L16.9391 16.7391C16.8512 16.8567 16.7552 16.9678 16.6516 17.0719C16.4005 17.3319 16.123 17.5648 15.8234 17.7672C14.8394 18.4209 13.6814 18.7634 12.5 18.75C11.0219 18.75 9.91875 18.2687 9.17813 17.7656C8.78623 17.5005 8.43244 17.183 8.12656 16.8219C8.10422 16.7947 8.08234 16.767 8.06094 16.7391L8.03906 16.7078L8.03125 16.6984L8.02812 16.6938V16.6906H8.02656L8.98438 16.0156L8.025 16.6875C7.84681 16.4331 7.77684 16.1186 7.83045 15.8127C7.88408 15.5069 8.05687 15.2348 8.31094 15.0562H8.3125Z" fill="white"/>
</g>
<defs>
<clipPath id="clip0_13_833">
<rect width="25" height="25" fill="white"/>
</clipPath>
</defs>
</svg>
